

<?xml version="1.0" encoding="UTF-8" standalone="no"?>
<!-- Created with Inkscape (http://www.inkscape.org/) -->

<svg
   version="1.1"
   id="svg1"
   width="800"
   height="800"
   viewBox="0 0 800 800"
   sodipodi:docname="radish.svg"
   inkscape:version="1.3.2 (091e20e, 2023-11-25, custom)"
   xmlns:inkscape="http://www.inkscape.org/namespaces/inkscape"
   xmlns:sodipodi="http://sodipodi.sourceforge.net/DTD/sodipodi-0.dtd"
   xmlns="http://www.w3.org/2000/svg"
   xmlns:svg="http://www.w3.org/2000/svg"
   xmlns:rdf="http://www.w3.org/1999/02/22-rdf-syntax-ns#"
   xmlns:cc="http://creativecommons.org/ns#"
   xmlns:dc="http://purl.org/dc/elements/1.1/">
  <title
     id="title26">radish</title>
  <defs
     id="defs1">
    <clipPath
       clipPathUnits="userSpaceOnUse"
       id="clipPath2">
      <path
         d="M 0,600 H 600 V 0 H 0 Z"
         transform="translate(-307.49751,-110.5858)"
         id="path2" />
    </clipPath>
    <clipPath
       clipPathUnits="userSpaceOnUse"
       id="clipPath4">
      <path
         d="M 0,600 H 600 V 0 H 0 Z"
         transform="translate(-305.18001,-247.94671)"
         id="path4" />
    </clipPath>
    <clipPath
       clipPathUnits="userSpaceOnUse"
       id="clipPath6">
      <path
         d="M 0,600 H 600 V 0 H 0 Z"
         transform="translate(-269.19471,-284.77431)"
         id="path6" />
    </clipPath>
    <clipPath
       clipPathUnits="userSpaceOnUse"
       id="clipPath8">
      <path
         d="M 0,600 H 600 V 0 H 0 Z"
         transform="translate(-307.10711,-310.94791)"
         id="path8" />
    </clipPath>
    <clipPath
       clipPathUnits="userSpaceOnUse"
       id="clipPath10">
      <path
         d="M 0,600 H 600 V 0 H 0 Z"
         transform="translate(-269.0443,-279.943)"
         id="path10" />
    </clipPath>
    <clipPath
       clipPathUnits="userSpaceOnUse"
       id="clipPath12">
      <path
         d="M 0,600 H 600 V 0 H 0 Z"
         transform="translate(-298.3786,-308.42061)"
         id="path12" />
    </clipPath>
    <clipPath
       clipPathUnits="userSpaceOnUse"
       id="clipPath14">
      <path
         d="M 0,600 H 600 V 0 H 0 Z"
         transform="translate(-268.50711,-287.22931)"
         id="path14" />
    </clipPath>
    <clipPath
       clipPathUnits="userSpaceOnUse"
       id="clipPath16">
      <path
         d="M 0,600 H 600 V 0 H 0 Z"
         transform="translate(-305.46541,-296.39161)"
         id="path16" />
    </clipPath>
    <clipPath
       clipPathUnits="userSpaceOnUse"
       id="clipPath18">
      <path
         d="M 0,600 H 600 V 0 H 0 Z"
         transform="translate(-262.39231,-303.79391)"
         id="path18" />
    </clipPath>
    <clipPath
       clipPathUnits="userSpaceOnUse"
       id="clipPath20">
      <path
         d="M 0,600 H 600 V 0 H 0 Z"
         transform="translate(-108.2014,-290.32681)"
         id="path20" />
    </clipPath>
    <clipPath
       clipPathUnits="userSpaceOnUse"
       id="clipPath22">
      <path
         d="M 0,600 H 600 V 0 H 0 Z"
         transform="translate(-180.4875,-340.58691)"
         id="path22" />
    </clipPath>
    <clipPath
       clipPathUnits="userSpaceOnUse"
       id="clipPath24">
      <path
         d="M 0,600 H 600 V 0 H 0 Z"
         transform="translate(-152.179,-330.52801)"
         id="path24" />
    </clipPath>
    <clipPath
       clipPathUnits="userSpaceOnUse"
       id="clipPath26">
      <path
         d="M 0,600 H 600 V 0 H 0 Z"
         transform="translate(-162.14691,-333.39881)"
         id="path26" />
    </clipPath>
  </defs>
  <sodipodi:namedview
     id="namedview1"
     pagecolor="#ffffff"
     bordercolor="#000000"
     borderopacity="0.25"
     inkscape:showpageshadow="2"
     inkscape:pageopacity="0.0"
     inkscape:pagecheckerboard="0"
     inkscape:deskcolor="#d1d1d1"
     inkscape:zoom="0.74"
     inkscape:cx="399.32432"
     inkscape:cy="400"
     inkscape:window-width="1440"
     inkscape:window-height="830"
     inkscape:window-x="-6"
     inkscape:window-y="-6"
     inkscape:window-maximized="1"
     inkscape:current-layer="layer-MC0">
    <inkscape:page
       x="0"
       y="0"
       inkscape:label="1"
       id="page1"
       width="800"
       height="800"
       margin="147.448 3.184 98.662666 2.4163201"
       bleed="0" />
  </sodipodi:namedview>
  <g
     id="layer-MC0"
     inkscape:groupmode="layer"
     inkscape:label="libreclipart.org">
    <path
       id="path1"
       d="m 0,0 c 159.79,0 290.115,48.695 290.115,108.401 0,59.705 -130.325,108.401 -290.115,108.401 -159.79,0 -290.115,-48.696 -290.115,-108.401 C -290.115,48.695 -159.79,0 0,0"
       style="fill:#bfbfbf;fill-opacity:1;fill-rule:evenodd;stroke:none"
       transform="matrix(1.3333333,0,0,-1.3333333,409.99667,652.55227)"
       clip-path="url(#clipPath2)" />
    <path
       id="path3"
       d="m 0,0 c -0.085,1.191 0.262,2.387 1.034,3.528 -0.308,1.184 -1.257,2.325 -2.808,3.295 -5.959,3.73 -11.506,7.612 -16.617,11.63 -3.628,2.852 -3.834,6.436 -0.54,9.383 3.293,2.947 9.578,4.802 16.452,4.855 3.358,0.026 6.649,0.46 9.579,1.262 2.912,0.797 5.024,2.145 5.836,3.726 0.812,1.581 0.254,3.256 -1.543,4.63 -3.871,2.96 -3.981,6.734 -0.284,9.746 3.698,3.012 10.567,4.744 17.737,4.473 5.309,-0.201 10.636,0.25 15.495,1.313 5.183,1.135 8.168,3.823 7.284,6.563 -0.703,2.18 0.954,4.382 4.379,5.822 3.426,1.44 8.134,1.913 12.445,1.248 10.389,-1.599 21.667,0.494 27.259,5.059 2.319,1.894 6.589,3.009 11.103,2.901 4.515,-0.109 8.539,-1.425 10.466,-3.421 2.473,-2.563 2.781,-5.498 0.858,-8.17 -2.892,-4.019 -0.233,-8.491 6.617,-11.129 4.24,-1.633 6.803,-4.091 7.011,-6.726 0.21,-2.634 -1.957,-5.182 -5.926,-6.97 -1.762,-0.793 -2.704,-1.931 -2.566,-3.099 0.138,-1.169 1.34,-2.246 3.278,-2.935 3.237,-1.152 5.522,-2.743 6.695,-4.508 4.981,2.997 12.059,5.035 19.96,5.686 9.258,0.761 18.417,-1.595 22.362,-5.755 1.136,-1.197 3.31,-2.082 5.924,-2.413 2.616,-0.331 5.397,-0.072 7.58,0.705 4.919,1.75 11.16,2.36 17.079,1.669 5.92,-0.691 10.921,-2.614 13.687,-5.26 4.469,-4.275 14.009,-6.692 23.74,-6.013 6.473,0.451 13.049,-0.359 18.307,-2.256 4.096,-1.478 6.19,-3.938 5.446,-6.398 -0.744,-2.46 -4.206,-4.519 -9.002,-5.356 -11.561,-2.016 -18.773,-7.643 -17.432,-13.601 0.557,-2.472 -1.545,-4.908 -5.556,-6.442 -4.012,-1.532 -9.362,-1.943 -14.143,-1.085 -6.007,1.078 -12.749,0.057 -16.452,-2.491 -2.24,-1.541 -3.946,-3.242 -5.066,-5.036 0.287,-0.473 0.489,-0.959 0.602,-1.457 0.897,-3.943 6.828,-7.171 14.758,-8.035 5.274,-0.574 9.875,-2.138 12.805,-4.355 2.283,-1.727 2.43,-3.928 0.383,-5.724 -2.048,-1.795 -5.956,-2.894 -10.165,-2.857 -10.144,0.091 -19.088,-3.231 -21.615,-8.029 -1.048,-1.991 -4.132,-3.575 -8.15,-4.188 -4.018,-0.613 -8.401,-0.168 -11.584,1.177 -4,1.691 -9.823,1.863 -14.212,0.421 -4.114,-1.352 -7.468,-3.185 -9.757,-5.334 -3.093,-2.901 -9.279,-4.698 -15.978,-4.643 -6.697,0.058 -12.753,1.959 -15.638,4.91 -1.339,1.371 -3.776,2.411 -6.736,2.877 -2.961,0.465 -6.183,0.314 -8.908,-0.418 -2.741,-0.735 -5.063,-1.792 -6.76,-3.076 -3.473,-2.627 -9.571,-4.139 -15.963,-3.958 -6.393,0.18 -12.094,2.025 -14.924,4.83 -3.989,3.951 -7.541,8.004 -10.645,12.142 -1.508,2.009 -5.012,3.505 -9.294,3.966 -4.281,0.461 -8.748,-0.177 -11.847,-1.691 -4.003,-1.955 -10.061,-2.504 -15.235,-1.379 -5.173,1.125 -8.39,3.69 -8.092,6.451 0.148,1.368 -1.002,2.693 -3.119,3.592 -2.117,0.9 -4.964,1.273 -7.719,1.012 -9.034,-0.855 -18.021,-1.825 -26.95,-2.907 -1.055,-0.361 -2.109,-0.723 -3.161,-1.087 -0.383,-1.332 0.17,-2.729 1.744,-3.942 18.886,-14.554 17.621,-33.114 -2.48,-46.958 v 0.001 l -0.22,-0.151 -0.074,-0.051 c -0.197,-0.134 -0.395,-0.267 -0.595,-0.4 l -0.076,-0.05 c -0.151,-0.1 -0.303,-0.2 -0.457,-0.3 -0.147,-0.095 -0.294,-0.191 -0.443,-0.285 -0.26,-0.166 -0.522,-0.332 -0.787,-0.496 l -0.209,-0.129 c -0.327,-0.201 -0.658,-0.402 -0.994,-0.6 l -0.007,-0.004 -0.009,-0.006 -0.015,-0.009 c -0.372,-0.219 -0.749,-0.438 -1.132,-0.655 -24.806,-14.073 -65.54,-18.571 -100.335,-11.08 -13.878,2.988 -26.643,7.081 -37.772,12.113 -5.802,2.623 -14.555,2.932 -21.068,0.741 -7.39,-2.485 -16.428,-3.52 -25.311,-2.897 -11.563,0.811 -23.249,1.124 -34.925,0.936 -18.89,-0.306 -36.172,-5.271 -45.893,-13.186 l -4.084,-3.325 c 0.459,7.543 7.193,14.667 18.648,19.731 11.455,5.064 26.643,7.63 42.059,7.106 12.424,-0.423 24.534,2.028 32.703,6.618 8.17,4.59 11.45,10.787 8.86,16.735 -0.129,0.297 -0.251,0.594 -0.367,0.891 l -0.037,0.097 c -0.109,0.282 -0.213,0.565 -0.309,0.847 l -0.019,0.054 c -0.101,0.296 -0.195,0.593 -0.282,0.889 l -0.019,0.064 c -0.082,0.282 -0.158,0.565 -0.229,0.847 l -0.021,0.085 c -0.071,0.288 -0.136,0.576 -0.195,0.864 l -0.008,0.041 c -0.059,0.293 -0.111,0.585 -0.158,0.877 l -0.014,0.098 c -0.042,0.275 -0.079,0.548 -0.11,0.822 l -0.01,0.086 c -0.031,0.287 -0.057,0.573 -0.076,0.859 l -0.005,0.093 c -0.017,0.269 -0.028,0.538 -0.035,0.807 l -0.002,0.122 c -0.005,0.263 -0.003,0.524 0.002,0.786 l 0.002,0.114 c 0.007,0.275 0.02,0.55 0.038,0.824 l 0.012,0.147 c 0.018,0.249 0.041,0.497 0.068,0.745 l 0.017,0.147 c 0.03,0.257 0.065,0.514 0.105,0.771 l 0.024,0.152 c 0.042,0.253 0.087,0.506 0.137,0.758 l 0.037,0.176 c 0.049,0.233 0.102,0.465 0.158,0.697 l 0.046,0.187 c 0.062,0.245 0.128,0.489 0.199,0.732 l 0.067,0.226 c 0.066,0.218 0.134,0.435 0.207,0.651 l 0.079,0.235 c 0.072,0.207 0.147,0.415 0.225,0.622 l 0.116,0.301 c 0.085,0.214 0.172,0.428 0.263,0.641 l 0.111,0.256 c 0.086,0.198 0.176,0.395 0.268,0.591 l 0.119,0.25 c 0.098,0.205 0.202,0.408 0.306,0.611 l 0.17,0.326 c 0.103,0.191 0.207,0.382 0.314,0.572 l 0.164,0.286 c 0.104,0.179 0.21,0.358 0.319,0.537 0.071,0.117 0.143,0.233 0.216,0.349 0.114,0.181 0.229,0.361 0.348,0.542 0.069,0.105 0.14,0.211 0.211,0.316 0.121,0.178 0.244,0.356 0.369,0.533 l 0.204,0.287 c 0.126,0.174 0.255,0.347 0.385,0.521 0.098,0.129 0.195,0.257 0.295,0.385 0.137,0.176 0.273,0.351 0.414,0.525 8.373,10.371 25.06,19.035 47.431,23.547 38.542,7.774 82.955,1.005 105.597,-16.093 l 1.163,-0.878 c 3.185,-2.405 7.229,-4.188 12.205,-5.375 6.735,3.207 13.309,6.494 19.714,9.859 2.051,1.078 2.971,2.556 2.494,4.009 -0.476,1.452 -2.296,2.717 -4.933,3.427 -5.324,1.436 -8.284,4.324 -7.446,7.264 0.837,2.941 5.301,5.325 11.223,5.995 C -5.258,-3.392 -1.732,-1.947 0,0"
       style="fill:#303030;fill-opacity:1;fill-rule:evenodd;stroke:none"
       transform="matrix(1.3333333,0,0,-1.3333333,406.90667,469.4044)"
       clip-path="url(#clipPath4)" />
    <path
       id="path5"
       d="m 0,0 7.459,5.769 c 11.453,8.859 21.343,19.572 29.26,31.696 6.31,9.664 6.918,21.978 1.593,32.215 -3.43,6.596 -3.068,14.523 0.95,20.779 4.017,6.255 11.075,9.882 18.501,9.505 9.216,-0.467 18.446,0.626 27.299,3.236 7.042,2.075 12.215,8.083 13.222,15.355 1.176,8.488 6.255,15.936 13.727,20.131 7.472,4.194 16.476,4.652 24.334,1.235 3.651,-1.586 7.293,-3.193 10.926,-4.82 7.037,-3.15 15.318,-0.533 19.267,6.087 4.914,8.238 13.194,13.903 22.651,15.497 9.258,1.56 18.417,-3.266 22.363,-11.785 1.135,-2.451 3.309,-4.265 5.924,-4.942 2.616,-0.678 5.397,-0.148 7.58,1.443 4.918,3.584 11.16,4.834 17.078,3.418 5.92,-1.415 10.921,-5.352 13.687,-10.772 4.469,-8.757 14.009,-13.705 23.74,-12.315 6.473,0.924 13.049,-0.735 18.307,-4.62 4.096,-3.027 6.191,-8.066 5.446,-13.105 -0.744,-5.037 -4.206,-9.256 -9.002,-10.969 -11.561,-4.128 -18.773,-15.653 -17.432,-27.855 0.558,-5.063 -1.545,-10.054 -5.557,-13.194 -4.01,-3.139 -9.361,-3.98 -14.141,-2.223 -6.008,2.208 -12.749,0.118 -16.454,-5.102 -3.472,-4.892 -5.663,-10.578 -6.373,-16.536 -0.959,-8.048 -6.386,-14.86 -14.016,-17.594 -7.63,-2.732 -16.15,-0.915 -22,4.694 -2.716,2.603 -6.385,3.974 -10.142,3.786 -3.759,-0.187 -7.274,-1.916 -9.717,-4.777 -2.458,-2.877 -4.161,-6.319 -4.957,-10.019 -1.63,-7.574 -7.207,-13.688 -14.601,-16.003 -7.394,-2.316 -15.461,-0.477 -21.121,4.814 -7.975,7.455 -15.546,15.331 -22.681,23.593 -3.466,4.015 -8.743,5.983 -13.992,5.22 C 95.879,21.08 91.381,17.692 89.199,12.857 86.381,6.612 80.005,2.749 73.164,3.146 66.324,3.541 60.436,8.111 58.356,14.639 c -1.03,3.235 -3.493,5.815 -6.677,6.994 -3.184,1.18 -6.733,0.827 -9.622,-0.956 C 24.035,9.559 6.571,-2.44 -10.27,-15.277 Z"
       style="fill:#2c5c11;fill-opacity:1;fill-rule:evenodd;stroke:none"
       transform="matrix(1.3333333,0,0,-1.3333333,358.92627,420.30093)"
       clip-path="url(#clipPath6)" />
    <path
       id="path7"
       d="M 0,0 C 14.133,9.359 28.148,17.927 42.167,25.717 46.425,41.376 54.164,50.808 65.83,61.931 58.481,52.765 52.34,42.612 48.224,29.034 c 17.685,9.542 35.403,17.847 53.398,24.934 6.213,19.011 16.323,30.137 31.372,43.102 -9.787,-11.018 -18.095,-23.372 -24.028,-40.283 16.174,6.048 32.596,11.124 49.438,15.239 7.835,15.358 18.098,23.849 32.744,33.314 -9.791,-8.367 -18.5,-18.023 -25.762,-31.666 24.539,5.572 50.009,9.141 76.939,10.75 C 216.047,80.513 190.457,74.91 165.284,67.81 179.109,53.431 195.17,46.985 216.148,40.374 193.517,42.311 175.444,51.17 158.967,65.994 143.293,61.406 127.773,56.238 112.342,50.541 129.092,38.06 147.144,33.631 170.2,29.722 145.844,28.455 125.209,34.993 105.454,47.959 86.735,40.846 68.131,32.957 49.528,24.376 64.058,14.137 79.242,11.163 98.747,8.862 78.487,6.779 61.083,11.554 44.086,21.846 29.418,14.976 14.741,7.68 0,0"
       style="fill:#20400c;fill-opacity:1;fill-rule:evenodd;stroke:none"
       transform="matrix(1.3333333,0,0,-1.3333333,409.47613,385.4028)"
       clip-path="url(#clipPath8)" />
    <path
       id="path9"
       d="m 0,0 6.311,5.495 c 9.69,8.439 20.725,15.196 32.646,19.993 9.501,3.822 20.325,2.224 28.316,-4.18 5.149,-4.126 12.112,-5.181 18.251,-2.765 6.139,2.417 10.515,7.934 11.471,14.462 1.186,8.103 3.733,15.948 7.534,23.203 3.023,5.771 9.146,9.236 15.65,8.856 7.592,-0.443 14.953,2.691 19.896,8.47 4.942,5.779 6.896,13.538 5.28,20.969 -0.75,3.451 -1.52,6.898 -2.308,10.342 -1.526,6.669 2.183,13.426 8.629,15.719 8.018,2.854 14.381,9.082 17.402,17.039 2.959,7.788 0.34,16.595 -6.393,21.502 -1.937,1.412 -3.14,3.617 -3.278,6.011 -0.138,2.393 0.803,4.723 2.565,6.347 3.97,3.663 6.136,8.88 5.927,14.276 -0.208,5.397 -2.771,10.431 -7.011,13.775 -6.85,5.403 -9.51,14.563 -6.617,22.793 1.923,5.474 1.614,11.485 -0.859,16.734 -1.926,4.088 -5.951,6.781 -10.465,7.005 -4.514,0.222 -8.784,-2.062 -11.103,-5.941 -5.592,-9.349 -16.87,-13.636 -27.259,-10.36 -4.312,1.36 -9.019,0.392 -12.446,-2.556 -3.424,-2.95 -5.082,-7.461 -4.378,-11.927 0.884,-5.61 -2.101,-11.117 -7.284,-13.439 -4.859,-2.178 -10.186,-3.103 -15.495,-2.69 -7.171,0.556 -14.039,-2.992 -17.737,-9.16 -3.697,-6.169 -3.588,-13.9 0.284,-19.961 1.797,-2.814 2.356,-6.245 1.543,-9.483 -0.813,-3.24 -2.925,-6 -5.836,-7.633 -2.93,-1.642 -6.221,-2.529 -9.579,-2.583 -6.875,-0.11 -13.159,-3.908 -16.453,-9.943 -3.293,-6.036 -3.087,-13.376 0.541,-19.217 5.111,-8.231 10.658,-16.181 16.617,-23.82 2.896,-3.711 3.697,-8.644 2.126,-13.081 C 34.917,79.815 31.191,76.485 26.605,75.421 20.682,74.047 16.219,69.165 15.381,63.142 14.544,57.12 17.504,51.204 22.827,48.266 25.465,46.81 27.285,44.22 27.761,41.245 28.238,38.27 27.317,35.242 25.266,33.035 12.474,19.269 -0.989,6.141 -15.072,-6.3 Z"
       style="fill:#346616;fill-opacity:1;fill-rule:evenodd;stroke:none"
       transform="matrix(1.3333333,0,0,-1.3333333,358.72573,426.74267)"
       clip-path="url(#clipPath10)" />
    <path
       id="path11"
       d="m 0,0 c 10.588,10.685 20.469,21.403 29.672,32.26 14.366,1 23.913,6.107 35.611,14.34 C 56.034,41.786 46.136,38.196 33.605,36.959 44.967,50.704 55.259,64.692 64.537,79.13 82.158,81.253 93.59,88.131 107.476,98.99 96.195,92.375 84.004,87.277 68.26,85.036 c 8.059,13.034 15.315,26.45 21.807,40.399 14.722,4.167 23.887,11.632 34.657,22.746 -8.975,-7.077 -18.885,-12.989 -32.015,-16.952 9.09,20.397 16.598,41.95 22.652,65.112 C 107.416,174.145 98.117,152.838 87.587,132.153 77.46,146.671 74.624,161.765 72.494,181.169 70.27,161.134 74.859,143.872 84.914,126.968 78.212,114.117 71.032,101.502 63.406,89.054 55.437,105.791 54.701,122.269 55.283,143.014 49.971,122.031 52.096,102.941 59.969,83.505 50.542,68.44 40.46,53.61 29.776,38.899 23.374,53.316 23.411,67.047 24.778,84.423 19.464,67.148 20.613,51.173 26.634,34.599 18.119,23.018 9.232,11.504 0,0"
       style="fill:#274d10;fill-opacity:1;fill-rule:evenodd;stroke:none"
       transform="matrix(1.3333333,0,0,-1.3333333,397.83813,388.77253)"
       clip-path="url(#clipPath12)" />
    <path
       id="path13"
       d="m 0,0 7.452,2.282 c 11.444,3.504 22.22,8.898 31.883,15.959 7.701,5.629 11.769,14.971 10.642,24.443 -0.726,6.101 1.871,12.125 6.804,15.788 4.933,3.662 11.45,4.405 17.081,1.945 6.99,-3.054 14.445,-4.905 22.052,-5.473 6.051,-0.453 11.806,2.681 14.71,8.01 3.388,6.218 9.491,10.494 16.493,11.554 7.002,1.061 14.098,-1.216 19.176,-6.153 2.359,-2.293 4.705,-4.599 7.039,-6.918 4.521,-4.491 11.688,-4.887 16.676,-0.922 6.205,4.933 14.262,6.895 22.04,5.365 7.613,-1.498 13.285,-7.905 13.848,-15.644 0.161,-2.227 1.312,-4.265 3.136,-5.552 1.824,-1.288 4.13,-1.691 6.282,-1.099 4.85,1.334 10.041,0.478 14.203,-2.346 4.164,-2.823 6.881,-7.328 7.437,-12.327 0.896,-8.075 6.827,-14.689 14.757,-16.457 5.274,-1.176 9.874,-4.38 12.805,-8.92 2.283,-3.536 2.43,-8.044 0.383,-11.723 -2.048,-3.677 -5.956,-5.928 -10.165,-5.851 -10.144,0.186 -19.088,-6.619 -21.615,-16.445 -1.048,-4.077 -4.132,-7.322 -8.151,-8.578 -4.017,-1.255 -8.4,-0.343 -11.583,2.412 -3.999,3.463 -9.823,3.815 -14.212,0.863 -4.114,-2.769 -7.469,-6.525 -9.758,-10.925 -3.092,-5.942 -9.279,-9.624 -15.977,-9.508 -6.697,0.116 -12.753,4.01 -15.638,10.055 -1.339,2.807 -3.776,4.938 -6.736,5.891 -2.961,0.953 -6.183,0.643 -8.908,-0.855 -2.741,-1.507 -5.064,-3.671 -6.76,-6.299 -3.473,-5.38 -9.571,-8.477 -15.963,-8.108 -6.394,0.37 -12.094,4.148 -14.925,9.892 -3.988,8.094 -7.541,16.395 -10.644,24.867 -1.508,4.117 -5.012,7.18 -9.294,8.124 -4.281,0.944 -8.749,-0.362 -11.848,-3.463 -4.002,-4.005 -10.061,-5.129 -15.234,-2.824 -5.173,2.303 -8.391,7.557 -8.092,13.212 0.148,2.802 -1.003,5.517 -3.119,7.358 C 44.16,3.472 41.312,4.236 38.558,3.702 21.376,0.37 4.368,-3.807 -12.403,-8.812 Z"
       style="fill:#417921;fill-opacity:1;fill-rule:evenodd;stroke:none"
       transform="matrix(1.3333333,0,0,-1.3333333,358.00947,417.0276)"
       clip-path="url(#clipPath14)" />
    <path
       id="path15"
       d="M 0,0 C 13.662,3.107 27.001,5.638 40.116,7.566 47.982,18.429 56.721,23.461 68.99,28.653 60.63,23.713 52.917,17.656 45.767,8.361 c 16.462,2.211 32.588,3.457 48.57,3.68 10.357,12.884 21.425,18.533 36.848,24.161 -10.786,-5.659 -20.819,-12.785 -30.346,-24.127 14.272,-0.049 28.452,-0.921 42.677,-2.659 10.544,9.586 20.959,13.153 35.048,16.192 C 168.549,22 158.995,17.078 149.395,8.651 169.996,5.79 190.732,1.11 212.022,-5.513 c -21.459,4.652 -42.881,7.796 -64.419,9.659 6.489,-15.155 17.023,-24.832 31.313,-36.071 -16.932,8.109 -28.318,20.238 -36.728,36.512 -13.459,1.031 -26.967,1.57 -40.563,1.672 9.305,-14.542 21.968,-23.24 38.653,-32.997 C 121.076,-20.603 107.032,-9.52 95.546,6.276 78.993,6.244 62.306,5.579 45.415,4.379 53.658,-7.783 64.53,-14.517 78.939,-21.994 62.666,-17.686 50.604,-8.911 40.468,4.013 27.12,2.986 13.641,1.632 0,0"
       style="fill:#274d10;fill-opacity:1;fill-rule:evenodd;stroke:none"
       transform="matrix(1.3333333,0,0,-1.3333333,407.2872,404.8112)"
       clip-path="url(#clipPath16)" />
    <path
       id="path17"
       d="m 0,0 -1.163,1.799 c -22.642,35.019 -67.056,48.882 -105.597,32.961 -38.542,-15.921 -60.224,-57.088 -51.551,-97.877 2.59,-12.182 -0.69,-24.873 -8.859,-34.275 -8.169,-9.401 -20.279,-14.42 -32.704,-13.554 -15.415,1.073 -30.603,-4.182 -42.059,-14.554 -11.455,-10.371 -18.188,-24.963 -18.647,-40.409 l 4.084,6.809 c 9.72,16.209 27.003,26.378 45.893,27.004 11.675,0.387 23.362,-0.254 34.925,-1.915 8.883,-1.276 17.921,0.842 25.311,5.933 6.513,4.486 15.265,3.856 21.068,-1.518 11.128,-10.306 23.893,-18.69 37.772,-24.809 34.794,-15.341 75.529,-6.129 100.335,22.693 24.806,28.821 27.849,70.474 7.497,102.595 -3.248,5.127 -2.148,11.872 2.56,15.701 l -0.971,0.269 C 10.224,-11.021 4.321,-6.684 0,0"
       style="fill:#cc003a;fill-opacity:1;fill-rule:evenodd;stroke:none"
       transform="matrix(1.3333333,0,0,-1.3333333,349.8564,394.94147)"
       clip-path="url(#clipPath18)" />
    <path
       id="path19"
       d="m 0,0 c -6.052,-15.355 -7.759,-32.535 -4.12,-49.65 2.59,-12.181 -0.69,-24.873 -8.859,-34.275 -8.169,-9.401 -20.279,-14.42 -32.704,-13.554 -15.415,1.073 -30.603,-4.182 -42.059,-14.554 -11.455,-10.371 -18.189,-24.963 -18.647,-40.409 l 4.084,6.809 c 9.72,16.209 27.003,26.378 45.893,27.004 11.675,0.387 23.362,-0.254 34.925,-1.915 8.883,-1.276 17.921,0.842 25.311,5.933 6.513,4.486 15.265,3.856 21.068,-1.518 11.128,-10.305 23.893,-18.689 37.772,-24.808 34.794,-15.342 75.529,-6.129 100.335,22.692 1.787,2.077 3.457,4.221 5.018,6.422 -4.984,-3.022 -10.413,-5.389 -16.168,-6.986 -20.647,-5.729 -42.792,-0.812 -59.075,13.117 -14.671,12.55 -30.65,23.484 -47.661,32.613 C 19.1,-59.12 2.111,-32.748 0.153,-3.292 0.08,-2.193 0.031,-1.095 0,0"
       style="fill:#ad0031;fill-opacity:1;fill-rule:evenodd;stroke:none"
       transform="matrix(1.3333333,0,0,-1.3333333,144.26853,412.8976)"
       clip-path="url(#clipPath20)" />
    <path
       id="path21"
       d="M 0,0 C 27.99,1.699 50.68,-10.618 50.68,-27.512 50.68,-44.405 27.99,-59.478 0,-61.177 -27.989,-62.876 -50.679,-50.559 -50.679,-33.665 -50.679,-16.772 -27.989,-1.7 0,0"
       style="fill:#de0945;fill-opacity:1;fill-rule:evenodd;stroke:none"
       transform="matrix(1.3333333,0,0,-1.3333333,240.65,345.88413)"
       clip-path="url(#clipPath22)" />
    <path
       id="path23"
       d="M 0,0 C 2.832,0.87 5.467,0.168 5.886,-1.566 6.306,-3.3 4.351,-5.411 1.519,-6.281 -1.312,-7.15 -3.948,-6.449 -4.367,-4.715 -4.787,-2.98 -2.832,-0.869 0,0"
       style="fill:#ffffff;fill-opacity:1;fill-rule:evenodd;stroke:none"
       transform="matrix(1.3333333,0,0,-1.3333333,202.90533,359.296)"
       clip-path="url(#clipPath24)" />
    <path
       id="path25"
       d="M 0,0 C 1.541,0.371 2.925,-0.09 3.092,-1.031 3.259,-1.971 2.145,-3.033 0.604,-3.404 -0.937,-3.775 -2.32,-3.313 -2.487,-2.373 -2.654,-1.433 -1.54,-0.371 0,0"
       style="fill:#ffffff;fill-opacity:1;fill-rule:evenodd;stroke:none"
       transform="matrix(1.3333333,0,0,-1.3333333,216.19587,355.46827)"
       clip-path="url(#clipPath26)" />
  </g>
  <metadata
     id="metadata26">
    <?xpacket begin="﻿" id="W5M0MpCehiHzreSzNTczkc9d"?>
<x:xmpmeta xmlns:x="adobe:ns:meta/" x:xmptk="Adobe XMP Core 9.1-c002 116.09864a8, 2024/08/02-05:47:26        ">
   <rdf:RDF xmlns:rdf="http://www.w3.org/1999/02/22-rdf-syntax-ns#">
      <rdf:Description rdf:about=""
            xmlns:dc="http://purl.org/dc/elements/1.1/"
            xmlns:xmpRights="http://ns.adobe.com/xap/1.0/rights/"
            xmlns:Iptc4xmpCore="http://iptc.org/std/Iptc4xmpCore/1.0/xmlns/"
            xmlns:xmp="http://ns.adobe.com/xap/1.0/"
            xmlns:xmpMM="http://ns.adobe.com/xap/1.0/mm/"
            xmlns:stEvt="http://ns.adobe.com/xap/1.0/sType/ResourceEvent#">
         <dc:title>
            <rdf:Alt>
               <rdf:li xml:lang="x-default">radish</rdf:li>
            </rdf:Alt>
         </dc:title>
         <dc:creator>
            <rdf:Seq>
               <rdf:li>libreclipart.org</rdf:li>
            </rdf:Seq>
         </dc:creator>
         <dc:rights>
            <rdf:Alt>
               <rdf:li xml:lang="x-default">This image is in public domain by libreclipart.org</rdf:li>
            </rdf:Alt>
         </dc:rights>
         <xmpRights:Marked>False</xmpRights:Marked>
         <xmpRights:UsageTerms>
            <rdf:Alt>
               <rdf:li xml:lang="x-default">Creative Commons Zero</rdf:li>
            </rdf:Alt>
         </xmpRights:UsageTerms>
         <Iptc4xmpCore:CreatorContactInfo>
            <rdf:Description>
               <Iptc4xmpCore:CiUrlWork>https://www.libreclipart.org</Iptc4xmpCore:CiUrlWork>
            </rdf:Description>
         </Iptc4xmpCore:CreatorContactInfo>
         <xmp:MetadataDate>2025-04-08T20:48:08+02:00</xmp:MetadataDate>
         <xmpMM:InstanceID>xmp.iid:0fa55200-2311-2944-99c7-c6d4ee9ec0d4</xmpMM:InstanceID>
         <xmpMM:DocumentID>xmp.did:0fa55200-2311-2944-99c7-c6d4ee9ec0d4</xmpMM:DocumentID>
         <xmpMM:OriginalDocumentID>xmp.did:0fa55200-2311-2944-99c7-c6d4ee9ec0d4</xmpMM:OriginalDocumentID>
         <xmpMM:History>
            <rdf:Seq>
               <rdf:li>
                  <rdf:Description>
                     <stEvt:action>saved</stEvt:action>
                     <stEvt:instanceID>xmp.iid:0fa55200-2311-2944-99c7-c6d4ee9ec0d4</stEvt:instanceID>
                     <stEvt:when>2025-04-08T20:48:08+02:00</stEvt:when>
                     <stEvt:softwareAgent>Adobe Bridge 2024</stEvt:softwareAgent>
                     <stEvt:changed>/metadata</stEvt:changed>
                  </rdf:Description>
               </rdf:li>
            </rdf:Seq>
         </xmpMM:History>
      </rdf:Description>
   </rdf:RDF>
</x:xmpmeta>
                                                                                                    
                                                                                                    
                                                                                                    
                                                                                                    
                                                                                                    
                                                                                                    
                                                                                                    
                                                                                                    
                                                                                                    
                                                                                                    
                                                                                                    
                                                                                                    
                                                                                                    
                                                                                                    
                                                                                                    
                                                                                                    
                                                                                                    
                                                                                                    
                                                                                                    
                                                                                                    
                           
<?xpacket end="w"?>
  </metadata>
</svg>
