

<?xml version="1.0" encoding="UTF-8" standalone="no"?>
<!-- Created with Inkscape (http://www.inkscape.org/) -->

<svg
   version="1.1"
   id="svg1"
   width="800"
   height="800"
   viewBox="0 0 800 800"
   sodipodi:docname="smiling-woodcutter-with-an-axe.svg"
   inkscape:version="1.3.2 (091e20e, 2023-11-25, custom)"
   xmlns:inkscape="http://www.inkscape.org/namespaces/inkscape"
   xmlns:sodipodi="http://sodipodi.sourceforge.net/DTD/sodipodi-0.dtd"
   xmlns="http://www.w3.org/2000/svg"
   xmlns:svg="http://www.w3.org/2000/svg"
   xmlns:rdf="http://www.w3.org/1999/02/22-rdf-syntax-ns#"
   xmlns:cc="http://creativecommons.org/ns#"
   xmlns:dc="http://purl.org/dc/elements/1.1/">
  <title
     id="title72">smiling-woodcutter-with-an-axe</title>
  <defs
     id="defs1">
    <clipPath
       clipPathUnits="userSpaceOnUse"
       id="clipPath2">
      <path
         d="M 0,600 H 600 V 0 H 0 Z"
         transform="translate(-282.5359,-77.409504)"
         id="path2" />
    </clipPath>
    <clipPath
       clipPathUnits="userSpaceOnUse"
       id="clipPath4">
      <path
         d="M 0,600 H 600 V 0 H 0 Z"
         transform="translate(-112.5279,-475.13121)"
         id="path4" />
    </clipPath>
    <clipPath
       clipPathUnits="userSpaceOnUse"
       id="clipPath6">
      <path
         d="M 0,600 H 600 V 0 H 0 Z"
         transform="translate(-187.1326,-194.54121)"
         id="path6" />
    </clipPath>
    <clipPath
       clipPathUnits="userSpaceOnUse"
       id="clipPath8">
      <path
         d="M 0,600 H 600 V 0 H 0 Z"
         transform="translate(-524.20781,-194.54121)"
         id="path8" />
    </clipPath>
    <clipPath
       clipPathUnits="userSpaceOnUse"
       id="clipPath10">
      <path
         d="M 0,600 H 600 V 0 H 0 Z"
         transform="translate(-524.20781,-176.49)"
         id="path10" />
    </clipPath>
    <clipPath
       clipPathUnits="userSpaceOnUse"
       id="clipPath12">
      <path
         d="M 0,600 H 600 V 0 H 0 Z"
         transform="translate(-138.59001,-297.23821)"
         id="path12" />
    </clipPath>
    <clipPath
       clipPathUnits="userSpaceOnUse"
       id="clipPath14">
      <path
         d="M 0,600 H 600 V 0 H 0 Z"
         transform="translate(-475.66561,-297.23821)"
         id="path14" />
    </clipPath>
    <clipPath
       clipPathUnits="userSpaceOnUse"
       id="clipPath16">
      <path
         d="M 0,600 H 600 V 0 H 0 Z"
         transform="translate(-475.66561,-279.18711)"
         id="path16" />
    </clipPath>
    <clipPath
       clipPathUnits="userSpaceOnUse"
       id="clipPath18">
      <path
         d="M 0,600 H 600 V 0 H 0 Z"
         transform="translate(-65.165102,-194.54121)"
         id="path18" />
    </clipPath>
    <clipPath
       clipPathUnits="userSpaceOnUse"
       id="clipPath20">
      <path
         d="M 0,600 H 600 V 0 H 0 Z"
         transform="translate(-402.24071,-194.54121)"
         id="path20" />
    </clipPath>
    <clipPath
       clipPathUnits="userSpaceOnUse"
       id="clipPath22">
      <path
         d="M 0,600 H 600 V 0 H 0 Z"
         transform="translate(-402.24071,-176.49)"
         id="path22" />
    </clipPath>
    <clipPath
       clipPathUnits="userSpaceOnUse"
       id="clipPath24">
      <path
         d="M 0,600 H 600 V 0 H 0 Z"
         id="path24" />
    </clipPath>
    <clipPath
       clipPathUnits="userSpaceOnUse"
       id="clipPath26">
      <path
         d="M 0,600 H 600 V 0 H 0 Z"
         transform="translate(-198.12321,-391.90231)"
         id="path26" />
    </clipPath>
    <clipPath
       clipPathUnits="userSpaceOnUse"
       id="clipPath28">
      <path
         d="M 0,600 H 600 V 0 H 0 Z"
         transform="translate(-283.95411,-500.39512)"
         id="path28" />
    </clipPath>
    <clipPath
       clipPathUnits="userSpaceOnUse"
       id="clipPath30">
      <path
         d="M 0,600 H 600 V 0 H 0 Z"
         transform="translate(-283.95411,-466.21721)"
         id="path30" />
    </clipPath>
    <clipPath
       clipPathUnits="userSpaceOnUse"
       id="clipPath32">
      <path
         d="M 0,600 H 600 V 0 H 0 Z"
         transform="translate(-269.55201,-437.83271)"
         id="path32" />
    </clipPath>
    <clipPath
       clipPathUnits="userSpaceOnUse"
       id="clipPath34">
      <path
         d="M 0,600 H 600 V 0 H 0 Z"
         transform="translate(-269.55201,-437.83271)"
         id="path34" />
    </clipPath>
    <clipPath
       clipPathUnits="userSpaceOnUse"
       id="clipPath36">
      <path
         d="M 0,600 H 600 V 0 H 0 Z"
         transform="translate(-262.92721,-472.98971)"
         id="path36" />
    </clipPath>
    <clipPath
       clipPathUnits="userSpaceOnUse"
       id="clipPath38">
      <path
         d="M 0,600 H 600 V 0 H 0 Z"
         transform="translate(-283.95411,-484.36121)"
         id="path38" />
    </clipPath>
    <clipPath
       clipPathUnits="userSpaceOnUse"
       id="clipPath40">
      <path
         d="M 0,600 H 600 V 0 H 0 Z"
         transform="translate(-268.49541,-479.47001)"
         id="path40" />
    </clipPath>
    <clipPath
       clipPathUnits="userSpaceOnUse"
       id="clipPath42">
      <path
         d="M 0,600 H 600 V 0 H 0 Z"
         transform="translate(-292.35711,-449.62941)"
         id="path42" />
    </clipPath>
    <clipPath
       clipPathUnits="userSpaceOnUse"
       id="clipPath44">
      <path
         d="M 0,600 H 600 V 0 H 0 Z"
         transform="translate(-283.95441,-453.68671)"
         id="path44" />
    </clipPath>
    <clipPath
       clipPathUnits="userSpaceOnUse"
       id="clipPath46">
      <path
         d="M 0,600 H 600 V 0 H 0 Z"
         transform="translate(-288.60871,-471.36771)"
         id="path46" />
    </clipPath>
    <clipPath
       clipPathUnits="userSpaceOnUse"
       id="clipPath48">
      <path
         d="M 0,600 H 600 V 0 H 0 Z"
         transform="translate(-292.45221,-461.06651)"
         id="path48" />
    </clipPath>
    <clipPath
       clipPathUnits="userSpaceOnUse"
       id="clipPath50">
      <path
         d="M 0,600 H 600 V 0 H 0 Z"
         transform="translate(-279.2989,-471.36771)"
         id="path50" />
    </clipPath>
    <clipPath
       clipPathUnits="userSpaceOnUse"
       id="clipPath52">
      <path
         d="M 0,600 H 600 V 0 H 0 Z"
         transform="translate(-275.45641,-461.06651)"
         id="path52" />
    </clipPath>
    <clipPath
       clipPathUnits="userSpaceOnUse"
       id="clipPath54">
      <path
         d="M 0,600 H 600 V 0 H 0 Z"
         transform="translate(-242.93431,-294.7729)"
         id="path54" />
    </clipPath>
    <clipPath
       clipPathUnits="userSpaceOnUse"
       id="clipPath56">
      <path
         d="M 0,600 H 600 V 0 H 0 Z"
         transform="translate(-283.95411,-405.88091)"
         id="path56" />
    </clipPath>
    <clipPath
       clipPathUnits="userSpaceOnUse"
       id="clipPath58">
      <path
         d="M 0,600 H 600 V 0 H 0 Z"
         transform="translate(-191.9223,-399.67861)"
         id="path58" />
    </clipPath>
    <clipPath
       clipPathUnits="userSpaceOnUse"
       id="clipPath60">
      <path
         d="M 0,600 H 600 V 0 H 0 Z"
         id="path60" />
    </clipPath>
    <clipPath
       clipPathUnits="userSpaceOnUse"
       id="clipPath62">
      <path
         d="M 0,600 H 600 V 0 H 0 Z"
         transform="translate(-143.3221,-467.55381)"
         id="path62" />
    </clipPath>
    <clipPath
       clipPathUnits="userSpaceOnUse"
       id="clipPath64">
      <path
         d="M 0,600 H 600 V 0 H 0 Z"
         transform="translate(-337.46711,-130.95291)"
         id="path64" />
    </clipPath>
    <clipPath
       clipPathUnits="userSpaceOnUse"
       id="clipPath66">
      <path
         d="M 0,600 H 600 V 0 H 0 Z"
         transform="translate(-158.57421,-424.43841)"
         id="path66" />
    </clipPath>
    <clipPath
       clipPathUnits="userSpaceOnUse"
       id="clipPath68">
      <path
         d="M 0,600 H 600 V 0 H 0 Z"
         transform="translate(-369.78391,-391.90191)"
         id="path68" />
    </clipPath>
    <clipPath
       clipPathUnits="userSpaceOnUse"
       id="clipPath70">
      <path
         d="M 0,600 H 600 V 0 H 0 Z"
         transform="translate(-359.02471,-429.87931)"
         id="path70" />
    </clipPath>
    <clipPath
       clipPathUnits="userSpaceOnUse"
       id="clipPath72">
      <path
         d="M 0,600 H 600 V 0 H 0 Z"
         transform="translate(-208.8829,-429.87981)"
         id="path72" />
    </clipPath>
  </defs>
  <sodipodi:namedview
     id="namedview1"
     pagecolor="#ffffff"
     bordercolor="#000000"
     borderopacity="0.25"
     inkscape:showpageshadow="2"
     inkscape:pageopacity="0.0"
     inkscape:pagecheckerboard="0"
     inkscape:deskcolor="#d1d1d1"
     inkscape:zoom="0.74"
     inkscape:cx="399.32432"
     inkscape:cy="400"
     inkscape:window-width="1440"
     inkscape:window-height="830"
     inkscape:window-x="-6"
     inkscape:window-y="-6"
     inkscape:window-maximized="1"
     inkscape:current-layer="layer-MC0">
    <inkscape:page
       x="0"
       y="0"
       inkscape:label="1"
       id="page1"
       width="800"
       height="800"
       margin="103.212 22.968 69.592003 8.798933"
       bleed="0" />
  </sodipodi:namedview>
  <g
     id="layer-MC0"
     inkscape:groupmode="layer"
     inkscape:label="libreclipart.org">
    <path
       id="path1"
       d="M 0,0 C 129.543,0 235.198,105.655 235.198,235.198 235.198,364.741 129.543,470.397 0,470.397 -129.543,470.397 -235.199,364.741 -235.199,235.198 -235.199,105.655 -129.543,0 0,0"
       style="fill:#ffe4c9;fill-opacity:1;fill-rule:evenodd;stroke:none"
       transform="matrix(1.3333333,0,0,-1.3333333,376.71453,696.78733)"
       clip-path="url(#clipPath2)" />
    <path
       id="path3"
       d="M 0,0 C 23.931,25.021 53.333,44.761 86.281,57.317 V -323.968 H 0 Z m 284.729,42.828 c 15.499,-8.678 29.92,-19.049 43,-30.88 v -228.777 h -43 z m -102.57,29.537 c 15.239,-0.779 30.093,-3.014 44.43,-6.558 v -298.7 h -44.43 z"
       style="fill:#fad4af;fill-opacity:1;fill-rule:evenodd;stroke:none"
       transform="matrix(1.3333333,0,0,-1.3333333,150.0372,166.49173)"
       clip-path="url(#clipPath4)" />
    <path
       id="path5"
       d="m 0,0 h 337.076 c 32.211,0 58.566,-26.355 58.566,-58.566 v 0 c 0,-32.212 -26.355,-58.566 -58.566,-58.566 H 0 c -32.211,0 -58.566,26.354 -58.566,58.566 v 0 C -58.566,-26.355 -32.211,0 0,0"
       style="fill:#a85c0f;fill-opacity:1;fill-rule:evenodd;stroke:none"
       transform="matrix(1.3333333,0,0,-1.3333333,249.51013,540.61173)"
       clip-path="url(#clipPath6)" />
    <path
       id="path7"
       d="m 0,0 c 32.211,0 58.566,-26.355 58.566,-58.566 v 0 c 0,-32.212 -26.355,-58.566 -58.566,-58.566 -32.211,0 -58.566,26.354 -58.566,58.566 v 0 C -58.566,-26.355 -32.211,0 0,0"
       style="fill:#a85c0f;fill-opacity:1;fill-rule:evenodd;stroke:none"
       transform="matrix(1.3333333,0,0,-1.3333333,698.94373,540.61173)"
       clip-path="url(#clipPath8)" />
    <path
       id="path9"
       d="M 0,0 C 22.283,0 40.515,-18.231 40.515,-40.515 40.515,-62.798 22.283,-81.03 0,-81.03 c -22.283,0 -40.515,18.232 -40.515,40.515 C -40.515,-18.231 -22.283,0 0,0"
       style="fill:#db7d1f;fill-opacity:1;fill-rule:evenodd;stroke:none"
       transform="matrix(1.3333333,0,0,-1.3333333,698.94373,564.68)"
       clip-path="url(#clipPath10)" />
    <path
       id="path11"
       d="m 0,0 h 337.076 c 32.211,0 58.565,-26.355 58.565,-58.566 v 0 c 0,-32.212 -26.354,-58.566 -58.565,-58.566 H 0 c -32.211,0 -58.566,26.354 -58.566,58.566 v 0 C -58.566,-26.355 -32.211,0 0,0"
       style="fill:#db8025;fill-opacity:1;fill-rule:evenodd;stroke:none"
       transform="matrix(1.3333333,0,0,-1.3333333,184.78667,403.6824)"
       clip-path="url(#clipPath12)" />
    <path
       id="path13"
       d="m 0,0 c 32.211,0 58.566,-26.355 58.566,-58.566 0,-32.212 -26.355,-58.567 -58.566,-58.567 -32.212,0 -58.566,26.355 -58.566,58.567 C -58.566,-26.355 -32.212,0 0,0"
       style="fill:#f09030;fill-opacity:1;fill-rule:evenodd;stroke:none"
       transform="matrix(1.3333333,0,0,-1.3333333,634.2208,403.6824)"
       clip-path="url(#clipPath14)" />
    <path
       id="path15"
       d="M 0,0 C 22.283,0 40.515,-18.232 40.515,-40.515 40.515,-62.799 22.283,-81.03 0,-81.03 c -22.283,0 -40.515,18.231 -40.515,40.515 C -40.515,-18.232 -22.283,0 0,0"
       style="fill:#ffc182;fill-opacity:1;fill-rule:evenodd;stroke:none"
       transform="matrix(1.3333333,0,0,-1.3333333,634.2208,427.75053)"
       clip-path="url(#clipPath16)" />
    <path
       id="path17"
       d="m 0,0 h 337.076 c 32.211,0 58.565,-26.355 58.565,-58.566 v 0 c 0,-32.212 -26.354,-58.566 -58.565,-58.566 H 0 c -32.211,0 -58.566,26.354 -58.566,58.566 v 0 C -58.566,-26.355 -32.211,0 0,0"
       style="fill:#ba6a1a;fill-opacity:1;fill-rule:evenodd;stroke:none"
       transform="matrix(1.3333333,0,0,-1.3333333,86.8868,540.61173)"
       clip-path="url(#clipPath18)" />
    <path
       id="path19"
       d="m 0,0 c 32.211,0 58.566,-26.355 58.566,-58.566 v 0 c 0,-32.212 -26.355,-58.566 -58.566,-58.566 -32.212,0 -58.566,26.354 -58.566,58.566 v 0 C -58.566,-26.355 -32.212,0 0,0"
       style="fill:#db8025;fill-opacity:1;fill-rule:evenodd;stroke:none"
       transform="matrix(1.3333333,0,0,-1.3333333,536.32093,540.61173)"
       clip-path="url(#clipPath20)" />
    <path
       id="path21"
       d="M 0,0 C 22.283,0 40.515,-18.231 40.515,-40.515 40.515,-62.798 22.283,-81.03 0,-81.03 c -22.283,0 -40.515,18.232 -40.515,40.515 C -40.515,-18.231 -22.283,0 0,0"
       style="fill:#f7a859;fill-opacity:1;fill-rule:evenodd;stroke:none"
       transform="matrix(1.3333333,0,0,-1.3333333,536.32093,564.68)"
       clip-path="url(#clipPath22)" />
    <path
       id="path23"
       d="m 124.509,414.133 h 280.282 v 9.025 H 124.509 Z"
       style="fill:#663333;fill-opacity:1;fill-rule:evenodd;stroke:none"
       transform="matrix(1.3333333,0,0,-1.3333333,0,800)"
       clip-path="url(#clipPath24)" />
    <path
       id="path25"
       d="m 0,0 2.754,2.848 c 1.67,1.727 3.09,3.8 4.201,6.13 1.576,3.308 4.509,5.213 7.573,4.92 0.755,-0.072 1.494,0.295 2.004,0.994 0.511,0.699 0.737,1.655 0.613,2.59 -0.351,2.648 -2.13,4.627 -4.269,4.748 h -38.903 l 3.344,-20.613 z"
       style="fill:#ff6666;fill-opacity:1;fill-rule:evenodd;stroke:none"
       transform="matrix(1.3333333,0,0,-1.3333333,264.16427,277.4636)"
       clip-path="url(#clipPath26)" />
    <path
       id="path27"
       d="m 0,0 h -3.239 c -4.221,0 -8.264,-1.701 -11.216,-4.718 -2.952,-3.016 -4.565,-7.096 -4.473,-11.316 L 0,-32.816 18.928,-16.034 c 0.091,4.22 -1.521,8.3 -4.473,11.316 C 11.503,-1.701 7.46,0 3.238,0 Z"
       style="fill:#f09030;fill-opacity:1;fill-rule:evenodd;stroke:none"
       transform="matrix(1.3333333,0,0,-1.3333333,378.60547,132.80653)"
       clip-path="url(#clipPath28)" />
    <path
       id="path29"
       d="m 0,0 c 20.94,0 38.019,5.691 38.019,12.669 0,6.978 -17.079,12.67 -38.019,12.67 -20.94,0 -38.019,-5.692 -38.019,-12.67 C -38.019,5.691 -20.94,0 0,0"
       style="fill:#db8025;fill-opacity:1;fill-rule:evenodd;stroke:none"
       transform="matrix(1.3333333,0,0,-1.3333333,378.60547,178.37707)"
       clip-path="url(#clipPath30)" />
    <path
       id="path31"
       d="m 0,0 c 0.941,-5.548 2.99,-16.228 -1.6,-20.241 l -12.802,-5.928 28.804,-19.762 28.804,19.762 -12.802,5.928 C 25.814,-16.228 27.862,-5.548 28.804,0 L 14.402,-5.928 Z"
       style="fill:#ff6666;fill-opacity:1;fill-rule:evenodd;stroke:none"
       transform="matrix(1.3333333,0,0,-1.3333333,359.40267,216.22307)"
       clip-path="url(#clipPath32)" />
    <path
       id="path33"
       d="M 0,0 C 0.603,-3.553 1.66,-9.21 1.137,-13.873 9.855,-17.298 19.87,-19.477 30.368,-20.207 25.825,-16.17 27.865,-5.533 28.804,0 L 14.402,-5.928 Z"
       style="fill:#cf2c2c;fill-opacity:1;fill-rule:evenodd;stroke:none"
       transform="matrix(1.3333333,0,0,-1.3333333,359.40267,216.22307)"
       clip-path="url(#clipPath34)" />
    <path
       id="path35"
       d="m 0,0 c -2.436,0 -4.052,-3.032 -3.611,-6.773 0.441,-3.74 2.774,-6.772 5.209,-6.772 2.436,0 4.053,3.032 3.612,6.772 C 4.768,-3.032 2.436,0 0,0 m 42.053,0 c 2.436,0 4.053,-3.032 3.611,-6.773 -0.441,-3.74 -2.774,-6.772 -5.209,-6.772 -2.436,0 -4.052,3.032 -3.611,6.772 C 37.285,-3.032 39.617,0 42.053,0"
       style="fill:#cf2c2c;fill-opacity:1;fill-rule:evenodd;stroke:none"
       transform="matrix(1.3333333,0,0,-1.3333333,350.5696,169.34707)"
       clip-path="url(#clipPath36)" />
    <path
       id="path37"
       d="m 0,0 c 5.902,0 11.191,-0.793 15.04,-2.395 l 7.854,-33.894 H 0 -22.895 l 7.854,33.894 C -11.192,-0.793 -5.902,0 0,0"
       style="fill:#ff6666;fill-opacity:1;fill-rule:evenodd;stroke:none"
       transform="matrix(1.3333333,0,0,-1.3333333,378.60547,154.18507)"
       clip-path="url(#clipPath38)" />
    <path
       id="path39"
       d="m 0,0 -3.191,-19.048 c -0.357,-2.134 0.501,-4.155 2.285,-5.379 1.783,-1.224 3.978,-1.298 5.84,-0.197 1.911,1.13 4.1,1.734 6.343,1.734 h 4.182 4.181 c 2.243,0 4.432,-0.604 6.343,-1.734 1.863,-1.101 4.057,-1.027 5.84,0.197 1.784,1.224 2.642,3.245 2.285,5.379 L 31.694,-4.636 C 21.956,-10.006 6.906,-5.211 0,0 m 32.614,1.227 8.745,-33.848 c 1.55,-6.003 -0.479,-12.363 -5.219,-16.36 -5.863,-4.942 -13.061,-8.034 -20.681,-8.885 -7.622,0.851 -14.819,3.943 -20.682,8.885 -4.74,3.997 -6.769,10.357 -5.219,16.36 l 8.744,33.848 2.116,1.269 c 3.849,1.602 9.139,2.395 15.041,2.395 5.902,0 11.191,-0.793 15.04,-2.395 z"
       style="fill:#663300;fill-opacity:1;fill-rule:evenodd;stroke:none"
       transform="matrix(1.3333333,0,0,-1.3333333,357.99387,160.70667)"
       clip-path="url(#clipPath40)" />
    <path
       id="path41"
       d="m 0,0 c 0,-4.641 -3.762,-8.403 -8.403,-8.403 -4.641,0 -8.403,3.762 -8.403,8.403 z"
       style="fill:#ffffff;fill-opacity:1;fill-rule:evenodd;stroke:none"
       transform="matrix(1.3333333,0,0,-1.3333333,389.80947,200.49413)"
       clip-path="url(#clipPath42)" />
    <path
       id="path43"
       d="M 0,0 C 2.564,0 4.656,1.17 4.656,2.605 4.656,4.04 2.564,5.21 0,5.21 -2.564,5.21 -4.656,4.04 -4.656,2.605 -4.656,1.17 -2.564,0 0,0"
       style="fill:#ff6666;fill-opacity:1;fill-rule:evenodd;stroke:none"
       transform="matrix(1.3333333,0,0,-1.3333333,378.60587,195.0844)"
       clip-path="url(#clipPath44)" />
    <path
       id="path45"
       d="m 0,0 v -3.115 h 2.516 c 1.689,0 3.372,-0.2 5.014,-0.598 l 0.924,1.762 c -1.712,1.175 -3.729,1.829 -5.805,1.883 z"
       style="fill:#663300;fill-opacity:1;fill-rule:evenodd;stroke:none"
       transform="matrix(1.3333333,0,0,-1.3333333,384.8116,171.50973)"
       clip-path="url(#clipPath46)" />
    <path
       id="path47"
       d="M 0,0 C 1.815,0 3.295,1.338 3.295,2.978 3.295,4.618 1.815,5.955 0,5.955 -1.815,5.955 -3.295,4.618 -3.295,2.978 -3.295,1.338 -1.815,0 0,0"
       style="fill:#1a1a1a;fill-opacity:1;fill-rule:evenodd;stroke:none"
       transform="matrix(1.3333333,0,0,-1.3333333,389.93627,185.24467)"
       clip-path="url(#clipPath48)" />
    <path
       id="path49"
       d="m 0,0 v -3.115 h -2.516 c -1.688,0 -3.372,-0.2 -5.014,-0.598 l -0.924,1.762 c 1.713,1.175 3.729,1.829 5.805,1.883 z"
       style="fill:#663300;fill-opacity:1;fill-rule:evenodd;stroke:none"
       transform="matrix(1.3333333,0,0,-1.3333333,372.39853,171.50973)"
       clip-path="url(#clipPath50)" />
    <path
       id="path51"
       d="M 0,0 C 1.815,0 3.295,1.338 3.295,2.978 3.295,4.618 1.815,5.955 0,5.955 -1.815,5.955 -3.295,4.618 -3.295,2.978 -3.295,1.338 -1.815,0 0,0"
       style="fill:#1a1a1a;fill-opacity:1;fill-rule:evenodd;stroke:none"
       transform="matrix(1.3333333,0,0,-1.3333333,367.2752,185.24467)"
       clip-path="url(#clipPath52)" />
    <path
       id="path53"
       d="m 0,0 c -4.972,-7.713 -5.381,-17.006 -1.1,-25.021 l -9.626,-84.89 -4.6,-6.647 2.335,-7.257 -2.973,-26.254 -2.135,-5.63 c -0.721,-1.9 -0.483,-3.859 0.672,-5.532 1.154,-1.672 2.901,-2.589 4.933,-2.589 h 32.247 c 1.83,0 3.406,0.732 4.585,2.132 1.18,1.4 1.634,3.077 1.324,4.88 l -1.101,6.386 2.935,24.655 4.885,4.636 -2.903,6.342 9.344,60.496 h 2.198 2.197 l 9.344,-60.496 -2.902,-6.342 4.884,-4.636 2.935,-24.655 -1.101,-6.386 c -0.31,-1.803 0.144,-3.48 1.324,-4.88 1.179,-1.4 2.754,-2.132 4.585,-2.132 h 32.247 c 2.032,0 3.779,0.917 4.934,2.589 1.154,1.673 1.392,3.632 0.671,5.532 l -2.135,5.63 -2.973,26.254 2.335,7.257 -4.6,6.647 -9.626,84.89 C 87.42,-17.006 87.011,-7.713 82.039,0 L 73.301,13.555 H 8.739 Z"
       style="fill:#2d5875;fill-opacity:1;fill-rule:evenodd;stroke:none"
       transform="matrix(1.3333333,0,0,-1.3333333,323.9124,406.96947)"
       clip-path="url(#clipPath54)" />
    <path
       id="path55"
       d="M 0,0 -16.678,13.862 -33.265,8.251 -38.388,7.763 C -53.037,6.369 -64.777,-4.967 -66.685,-19.558 l -11.22,-12.44 c -6.13,-6.797 -7.642,-16.584 -3.847,-24.913 3.795,-8.329 12.171,-13.611 21.322,-13.445 9.152,0.165 17.332,5.747 20.823,14.208 l -3.903,-33.663 c -5.473,-47.204 92.493,-47.204 87.02,0 l -3.903,33.663 c 3.491,-8.461 11.671,-14.043 20.822,-14.208 9.151,-0.166 17.528,5.116 21.322,13.445 3.795,8.329 2.284,18.116 -3.846,24.913 l -11.221,12.44 C 64.776,-4.967 53.037,6.369 38.387,7.763 l -5.122,0.488 -16.588,5.611 z"
       style="fill:#bd202a;fill-opacity:1;fill-rule:evenodd;stroke:none"
       transform="matrix(1.3333333,0,0,-1.3333333,378.60547,258.82547)"
       clip-path="url(#clipPath56)" />
    <path
       id="path57"
       d="m 0,0 26.851,-31.273 3.721,-1.927 c 8.518,-4.413 13.03,-13.195 11.258,-21.917 -1.77,-8.721 -9.439,-15.487 -19.137,-16.884 -9.698,-1.397 -19.318,2.879 -24.007,10.67 -12.189,20.254 -17.466,32.214 -15.168,55.172 z m 184.063,0 -26.852,-31.273 -3.72,-1.927 c -8.518,-4.413 -13.029,-13.195 -11.258,-21.917 1.77,-8.722 9.439,-15.487 19.137,-16.884 9.698,-1.397 19.318,2.879 24.006,10.67 12.189,20.255 17.467,32.214 15.169,55.172 z"
       style="fill:#ff6666;fill-opacity:1;fill-rule:evenodd;stroke:none"
       transform="matrix(1.3333333,0,0,-1.3333333,255.8964,267.0952)"
       clip-path="url(#clipPath58)" />
    <path
       id="path59"
       d="m 127.496,410.778 h 35.005 v 15.734 h -35.005 z"
       style="fill:#1a1a1a;fill-opacity:1;fill-rule:evenodd;stroke:none"
       transform="matrix(1.3333333,0,0,-1.3333333,0,800)"
       clip-path="url(#clipPath60)" />
    <path
       id="path61"
       d="m 0,0 c -10.335,0 -19.897,-5.477 -25.125,-14.393 l 2.073,-2.317 c 6.533,-7.301 10.364,-16.621 10.855,-26.405 h 27.748 c 0.491,9.784 4.323,19.104 10.855,26.405 l 2.074,2.317 C 23.251,-5.477 13.689,0 3.354,0 Z"
       style="fill:#1a1a1a;fill-opacity:1;fill-rule:evenodd;stroke:none"
       transform="matrix(1.3333333,0,0,-1.3333333,191.09613,176.59493)"
       clip-path="url(#clipPath62)" />
    <path
       id="path63"
       d="m 0,0 1.083,-32.321 c 0.442,-3.113 2.865,-5.396 5.694,-5.367 1.607,0.016 3.105,-0.901 3.955,-2.42 0.849,-1.518 0.928,-3.421 0.206,-5.02 -1.6,-3.547 -4.117,-6.478 -7.227,-8.416 H -26.624 L -32.247,0 Z m -107.027,0 -1.082,-32.321 c -0.443,-3.113 -2.865,-5.396 -5.694,-5.367 -1.607,0.016 -3.106,-0.901 -3.955,-2.42 -0.85,-1.518 -0.928,-3.421 -0.207,-5.02 1.6,-3.547 4.117,-6.478 7.228,-8.416 h 30.334 L -74.779,0 Z"
       style="fill:#1a1a1a;fill-opacity:1;fill-rule:evenodd;stroke:none"
       transform="matrix(1.3333333,0,0,-1.3333333,449.95613,625.39613)"
       clip-path="url(#clipPath64)" />
    <path
       id="path65"
       d="M 0,0 H 0.299 C 0.329,0.602 0.372,1.203 0.428,1.801 0.273,1.204 0.131,0.604 0,0 M -27.577,1.801 C -27.522,1.203 -27.479,0.602 -27.449,0 h 0.299 c -0.131,0.604 -0.273,1.204 -0.427,1.801 m 12.325,41.314 c -10.335,0 -19.897,-5.476 -25.125,-14.392 l 2.073,-2.317 c 0.765,-0.855 1.492,-1.738 2.182,-2.645 4.948,7.221 12.711,11.548 21.028,11.548 h 3.037 c 8.318,0 16.081,-4.327 21.029,-11.548 0.69,0.907 1.417,1.79 2.182,2.645 l 2.074,2.317 C 7.999,37.639 -1.563,43.115 -11.898,43.115 Z"
       style="fill:#c4c4c4;fill-opacity:1;fill-rule:evenodd;stroke:none"
       transform="matrix(1.3333333,0,0,-1.3333333,211.43227,234.08213)"
       clip-path="url(#clipPath66)" />
    <path
       id="path67"
       d="m 0,0 -2.754,2.849 c -1.67,1.727 -3.09,3.8 -4.201,6.129 -1.576,3.308 -4.509,5.213 -7.573,4.92 -0.754,-0.072 -1.494,0.295 -2.004,0.994 -0.511,0.7 -0.737,1.655 -0.613,2.59 0.351,2.648 2.13,4.627 4.269,4.748 H 26.027 L 22.683,1.618 Z"
       style="fill:#ff6666;fill-opacity:1;fill-rule:evenodd;stroke:none"
       transform="matrix(1.3333333,0,0,-1.3333333,493.0452,277.46413)"
       clip-path="url(#clipPath68)" />
    <path
       id="path69"
       d="m 0,0 c -1.227,-3.612 -1.643,-5.594 -1.464,-9.405 0.077,-1.641 1.116,-3.082 2.649,-3.673 1.532,-0.591 3.27,-0.221 4.429,0.943 l -0.122,-5.123 h 23.963 c -3.051,5.147 1.266,10.536 7.623,10.536 -0.577,3.821 -2.042,5.754 -6.681,5.776 L 10.984,-0.854 9.147,1.525 C 7.962,3.059 6.03,3.817 4.118,3.498 2.205,3.18 0.623,1.836 0,0"
       style="fill:#ff6666;fill-opacity:1;fill-rule:evenodd;stroke:none"
       transform="matrix(1.3333333,0,0,-1.3333333,478.6996,226.8276)"
       clip-path="url(#clipPath70)" />
    <path
       id="path71"
       d="m 0,0 c 1.227,-3.613 1.643,-5.594 1.464,-9.405 -0.078,-1.641 -1.117,-3.082 -2.649,-3.673 -1.533,-0.591 -3.27,-0.221 -4.429,0.942 l 0.122,-5.123 h -23.964 c 3.052,5.147 -1.266,10.537 -7.622,10.537 0.576,3.821 2.042,5.753 6.681,5.775 l 19.412,0.093 1.837,2.379 c 1.185,1.534 3.118,2.292 5.03,1.973 C -2.206,3.179 -0.624,1.836 0,0"
       style="fill:#ff6666;fill-opacity:1;fill-rule:evenodd;stroke:none"
       transform="matrix(1.3333333,0,0,-1.3333333,278.51053,226.82693)"
       clip-path="url(#clipPath72)" />
  </g>
  <metadata
     id="metadata72">
    <?xpacket begin="﻿" id="W5M0MpCehiHzreSzNTczkc9d"?>
<x:xmpmeta xmlns:x="adobe:ns:meta/" x:xmptk="Adobe XMP Core 9.1-c002 116.09864a8, 2024/08/02-05:47:26        ">
   <rdf:RDF xmlns:rdf="http://www.w3.org/1999/02/22-rdf-syntax-ns#">
      <rdf:Description rdf:about=""
            xmlns:dc="http://purl.org/dc/elements/1.1/"
            xmlns:xmpRights="http://ns.adobe.com/xap/1.0/rights/"
            xmlns:Iptc4xmpCore="http://iptc.org/std/Iptc4xmpCore/1.0/xmlns/"
            xmlns:xmp="http://ns.adobe.com/xap/1.0/"
            xmlns:xmpMM="http://ns.adobe.com/xap/1.0/mm/"
            xmlns:stEvt="http://ns.adobe.com/xap/1.0/sType/ResourceEvent#">
         <dc:title>
            <rdf:Alt>
               <rdf:li xml:lang="x-default">smiling-woodcutter-with-an-axe</rdf:li>
            </rdf:Alt>
         </dc:title>
         <dc:creator>
            <rdf:Seq>
               <rdf:li>libreclipart.org</rdf:li>
            </rdf:Seq>
         </dc:creator>
         <dc:rights>
            <rdf:Alt>
               <rdf:li xml:lang="x-default">This image is in public domain by libreclipart.org</rdf:li>
            </rdf:Alt>
         </dc:rights>
         <xmpRights:Marked>False</xmpRights:Marked>
         <xmpRights:UsageTerms>
            <rdf:Alt>
               <rdf:li xml:lang="x-default">Creative Commons Zero</rdf:li>
            </rdf:Alt>
         </xmpRights:UsageTerms>
         <Iptc4xmpCore:CreatorContactInfo>
            <rdf:Description>
               <Iptc4xmpCore:CiUrlWork>https://www.libreclipart.org</Iptc4xmpCore:CiUrlWork>
            </rdf:Description>
         </Iptc4xmpCore:CreatorContactInfo>
         <xmp:MetadataDate>2025-04-27T18:20:25+02:00</xmp:MetadataDate>
         <xmpMM:InstanceID>xmp.iid:65449d8e-6256-7b4a-8b00-3555744913eb</xmpMM:InstanceID>
         <xmpMM:DocumentID>xmp.did:65449d8e-6256-7b4a-8b00-3555744913eb</xmpMM:DocumentID>
         <xmpMM:OriginalDocumentID>xmp.did:65449d8e-6256-7b4a-8b00-3555744913eb</xmpMM:OriginalDocumentID>
         <xmpMM:History>
            <rdf:Seq>
               <rdf:li>
                  <rdf:Description>
                     <stEvt:action>saved</stEvt:action>
                     <stEvt:instanceID>xmp.iid:65449d8e-6256-7b4a-8b00-3555744913eb</stEvt:instanceID>
                     <stEvt:when>2025-04-27T18:20:25+02:00</stEvt:when>
                     <stEvt:softwareAgent>Adobe Bridge 2024</stEvt:softwareAgent>
                     <stEvt:changed>/metadata</stEvt:changed>
                  </rdf:Description>
               </rdf:li>
            </rdf:Seq>
         </xmpMM:History>
      </rdf:Description>
   </rdf:RDF>
</x:xmpmeta>
                                                                                                    
                                                                                                    
                                                                                                    
                                                                                                    
                                                                                                    
                                                                                                    
                                                                                                    
                                                                                                    
                                                                                                    
                                                                                                    
                                                                                                    
                                                                                                    
                                                                                                    
                                                                                                    
                                                                                                    
                                                                                                    
                                                                                                    
                                                                                                    
                                                                                                    
                                                                                                    
                           
<?xpacket end="w"?>
  </metadata>
</svg>
