<svg xmlns="http://www.w3.org/2000/svg" width="6844" height="5229" viewBox="0 0 6844 5229" version="1.1">
	<path d="M 4307 0.676 C 4238.212 5.671, 4116.493 23.988, 4038.500 41.081 C 4015.237 46.179, 4018.876 45.156, 3924.500 73.121 C 3794.770 111.561, 3731.684 131.020, 3705 140.825 C 3688.703 146.813, 3647.454 164.228, 3427 258.195 C 3401.406 269.105, 3333.217 296.285, 3266.500 322.172 C 3082.687 393.492, 2870.110 476.199, 2843.709 486.667 C 2803.437 502.633, 2775.389 517.263, 2613 607 C 2455.270 694.163, 2431.344 707.106, 2399.268 722.617 C 2376.023 733.858, 2360.555 742.568, 2335.151 758.723 C 2297.237 782.832, 2236.230 824.822, 2179.627 865.769 C 2117.140 910.972, 2110.095 916.647, 2056.030 965.350 C 1973.658 1039.551, 1948.539 1060.572, 1930.270 1070.593 C 1908.916 1082.307, 1887.268 1103.361, 1822.407 1175.500 C 1807.077 1192.550, 1789.348 1211.675, 1783.009 1218 C 1772.713 1228.275, 1769.834 1230.479, 1755.992 1238.686 C 1725.245 1256.917, 1701.071 1269.019, 1681.500 1275.977 C 1671.513 1279.528, 1666.913 1279.967, 1618.789 1281.971 C 1573.490 1283.857, 1541.651 1283.034, 1522.500 1279.482 C 1514.408 1277.981, 1351.145 1236.478, 1350.399 1235.732 C 1350.177 1235.511, 1352.952 1225.017, 1356.565 1212.415 C 1368.502 1170.774, 1372.250 1154.599, 1372.304 1144.500 C 1372.398 1126.736, 1362.003 1083.823, 1351.389 1058.155 C 1342.482 1036.615, 1333.681 1026.228, 1317.982 1018.725 C 1301.051 1010.634, 1280.282 1004.962, 1245.452 998.917 C 1230.161 996.262, 1226.092 995.898, 1218 996.458 C 1187.785 998.549, 1163.491 1004.663, 1121.500 1020.741 C 1095.728 1030.609, 1084.574 1036.234, 1078.563 1042.394 C 1072.429 1048.679, 1059.227 1065.947, 1044.076 1087.500 C 1030.774 1106.422, 979.069 1166, 975.950 1166 C 968.563 1166, 893.608 1153.888, 882.550 1150.908 C 864.057 1145.924, 842.869 1142.897, 782 1136.544 C 685.179 1126.440, 658.824 1125.365, 593.500 1128.856 C 571.500 1130.031, 543.150 1131.399, 530.500 1131.894 L 507.500 1132.796 495.542 1137.027 C 484.582 1140.905, 482.994 1141.213, 476.501 1140.722 C 472.078 1140.387, 466.428 1139.029, 461.459 1137.107 C 431.075 1125.355, 371.933 1081.423, 350.413 1054.619 C 345.901 1049, 341.101 1040.978, 334.825 1028.565 C 323.130 1005.434, 313.324 988.396, 300.256 968.500 C 273.176 927.271, 241.009 889.254, 223.500 877.784 C 197.135 860.513, 161.092 848.973, 146 852.971 C 139.166 854.781, 113.023 874.856, 98.500 889.445 C 81.359 906.664, 65.636 929.312, 57.867 947.973 C 49.768 967.429, 43.079 1010.739, 42.242 1049.140 C 41.364 1089.460, 45.003 1110.962, 64.895 1183 C 73.035 1212.478, 76.281 1226.889, 78.932 1245.313 C 83.816 1279.250, 83.895 1286.333, 79.956 1337 C 73.930 1414.511, 66.780 1472.927, 61.993 1483.748 C 60.635 1486.818, 60.333 1488.746, 60.954 1490.378 C 62.253 1493.796, 69.616 1499.860, 79.315 1505.500 C 84.044 1508.250, 87.933 1510.844, 87.957 1511.265 C 88.041 1512.752, 81.822 1515.751, 70.901 1519.489 L 59.847 1523.273 72.673 1530.788 C 115.859 1556.089, 115.475 1555.844, 112.931 1556.445 C 111.594 1556.761, 97.698 1559.730, 82.051 1563.042 C 66.404 1566.354, 53.433 1569.234, 53.226 1569.441 C 52.834 1569.833, 56.132 1571.720, 79.445 1584.445 C 87.115 1588.632, 93.577 1592.244, 93.806 1592.472 C 94.034 1592.701, 91.567 1596.175, 88.323 1600.194 C 74.732 1617.031, 64.648 1632.207, 58.898 1644.476 C 55.976 1650.711, 54.526 1655.710, 53.049 1664.634 C 50.764 1678.441, 48.509 1697.893, 46.978 1717 C 45.011 1741.563, 30.645 1827.949, 7.318 1955.500 C -0.054 1995.809, -1.065 2007.497, 0.901 2029.730 C 3.179 2055.490, 9.705 2091.755, 18.495 2127.500 C 26.768 2161.143, 48.257 2235.622, 60.618 2273.500 C 73.132 2311.843, 73.775 2313.137, 115.983 2384.929 C 129.362 2407.686, 141.159 2428.545, 142.199 2431.283 C 146.162 2441.712, 153.095 2480.646, 153.367 2494 C 153.495 2500.232, 152.869 2502.024, 138.185 2537.500 C 117.778 2586.801, 115.396 2593.643, 106.657 2628.037 C 97.544 2663.900, 96.234 2671.467, 94.953 2695.609 C 92.858 2735.094, 92.650 2759.832, 94.332 2769.454 C 97.183 2785.760, 106.879 2801.097, 126.920 2821 C 144.206 2838.167, 140.798 2836.620, 210.500 2858.941 C 231.160 2865.557, 243.819 2871.203, 259.862 2880.959 C 265.561 2884.424, 274.561 2888.814, 279.862 2890.713 C 305.933 2900.054, 351.343 2910.581, 420 2923.202 C 431.733 2925.359, 435.020 2925.500, 473.558 2925.500 L 514.616 2925.500 536.229 2914.671 L 557.842 2903.842 589.821 2897.413 C 612.568 2892.840, 625.654 2889.664, 635.150 2886.412 C 667.862 2875.210, 710.136 2856.479, 721.840 2848.001 C 724.072 2846.384, 728.258 2841.560, 731.143 2837.281 C 734.029 2833.001, 741.778 2822.075, 748.364 2813 C 754.949 2803.925, 760.414 2796.385, 760.508 2796.245 C 760.601 2796.104, 775.263 2804.810, 793.089 2815.592 C 810.915 2826.373, 837.425 2842.408, 852 2851.224 C 866.575 2860.041, 885.700 2872.231, 894.500 2878.312 C 918.363 2894.804, 996.713 2953.139, 1019 2971.008 C 1044.135 2991.161, 1060.433 3003.288, 1072.130 3010.540 C 1077.283 3013.736, 1104 3027.686, 1131.500 3041.540 C 1186.964 3069.483, 1210.031 3081.787, 1220.500 3089.013 C 1224.350 3091.670, 1236.696 3100.022, 1247.935 3107.573 C 1276.490 3126.756, 1279.048 3129.461, 1303.187 3166 C 1355.475 3245.147, 1364.694 3258.714, 1376.913 3274.500 C 1398.822 3302.805, 1408.272 3318.227, 1417.362 3340.511 C 1421.245 3350.030, 1453.970 3453.363, 1459.056 3472.165 C 1463.579 3488.883, 1471.114 3571.370, 1471.373 3607 L 1471.500 3624.500 1467.189 3638.385 C 1464.818 3646.022, 1458.611 3664.409, 1453.396 3679.245 C 1447.383 3696.349, 1438.599 3725.114, 1429.389 3757.859 C 1393.611 3885.061, 1384.893 3914.767, 1368.017 3967 C 1341.594 4048.778, 1329.690 4090.912, 1321.433 4131.885 C 1318.372 4147.073, 1312.338 4174.350, 1308.024 4192.500 C 1300.030 4226.129, 1296.987 4240.296, 1295.209 4252.155 C 1294.021 4260.086, 1287.928 4275.577, 1267.738 4322 C 1247.775 4367.904, 1240.285 4386.625, 1237.439 4397.731 C 1234.736 4408.284, 1232.006 4426.891, 1229.037 4455 C 1225.930 4484.414, 1223.172 4501.436, 1219.805 4511.981 C 1210.586 4540.858, 1188.703 4588.356, 1174.715 4609.853 C 1164.586 4625.419, 1128.789 4663.243, 1119 4668.722 C 1107.241 4675.304, 1100.848 4676.347, 1059 4678.509 C 1011.087 4680.985, 989.505 4683.446, 974.086 4688.194 C 967.697 4690.162, 945.445 4699.717, 910.500 4715.499 C 901.150 4719.722, 890.575 4723.804, 887 4724.571 C 877.497 4726.609, 854.726 4726.328, 829.964 4723.866 C 817.919 4722.668, 800.820 4721.695, 791 4721.648 L 773.500 4721.565 733 4731.717 C 684.647 4743.839, 671.436 4747.739, 659.500 4753.416 C 647.783 4758.988, 640.808 4764.379, 627.390 4778.230 C 609.915 4796.269, 599.127 4813.740, 591.664 4836.087 C 589.719 4841.911, 585.625 4851.471, 582.564 4857.333 C 572.511 4876.589, 573.951 4879.060, 609 4902.714 C 619.725 4909.952, 632.100 4918.771, 636.500 4922.312 C 651.542 4934.417, 670.725 4955.509, 708.048 5000.981 C 733.819 5032.379, 743.722 5041.988, 763.842 5055.115 C 776.987 5063.692, 789.137 5069.011, 805.594 5073.392 C 812.764 5075.301, 828.726 5080.672, 841.065 5085.327 C 878.334 5099.389, 889.883 5102.324, 908 5102.337 C 925.086 5102.350, 935.936 5099.325, 967.500 5085.751 C 1020.620 5062.906, 1029.739 5062.315, 1094.569 5077.515 C 1144.152 5089.140, 1145.801 5089.425, 1163.500 5089.453 C 1177.880 5089.475, 1180.613 5089.190, 1190.500 5086.636 C 1213.739 5080.632, 1239.841 5069.279, 1257.656 5057.425 C 1262.284 5054.346, 1270.721 5047.403, 1276.406 5041.996 C 1282.091 5036.590, 1293.841 5026.903, 1302.518 5020.471 C 1311.194 5014.039, 1321.377 5005.692, 1325.146 5001.922 C 1334.379 4992.690, 1342.152 4980.442, 1348.465 4965.176 C 1362.026 4932.385, 1366.640 4925.214, 1388.383 4903.131 C 1397.247 4894.128, 1415.300 4876.960, 1428.500 4864.982 C 1462.020 4834.563, 1471.463 4824.488, 1483.177 4806.649 C 1493.230 4791.339, 1499.159 4777.311, 1503.106 4759.500 C 1504.696 4752.319, 1505.280 4744.334, 1505.994 4720 C 1507.557 4666.652, 1509.554 4651.376, 1518.928 4621.036 C 1521.680 4612.127, 1528.937 4584.737, 1535.054 4560.169 C 1541.857 4532.845, 1547.739 4511.479, 1550.204 4505.146 C 1568.899 4457.102, 1658.443 4304.790, 1706.310 4239.611 C 1734.057 4201.830, 1810.995 4101.205, 1879.961 4012.500 L 1911.060 3972.500 1926.725 3940.500 C 1953.962 3884.863, 1996.472 3800.446, 2010.503 3774.136 C 2028.573 3740.250, 2038.095 3723.751, 2050.981 3704 C 2073.490 3669.498, 2088.693 3643.632, 2101.456 3618.124 C 2104.036 3612.966, 2106.515 3609.141, 2106.964 3609.624 C 2113.273 3616.391, 2175.754 3698.682, 2180.901 3707.003 C 2182.771 3710.026, 2190.686 3722.175, 2198.491 3734 C 2231.176 3783.526, 2233.767 3789.144, 2241.596 3827.483 C 2257.309 3904.433, 2268.353 3955.119, 2273.737 3975 C 2280.788 4001.035, 2281.163 3994.572, 2253.925 4316.500 C 2248.550 4380.033, 2248.473 4381.549, 2246.956 4453.500 C 2245.449 4524.934, 2243.415 4563.979, 2240.446 4578.465 C 2238.535 4587.786, 2234.391 4596.208, 2220.404 4619.190 C 2190.232 4668.766, 2182.650 4683.303, 2171.991 4712.009 C 2139.966 4798.264, 2115.440 4861.856, 2113.279 4864.245 C 2110.478 4867.340, 2102.040 4872.007, 2064.270 4891.355 C 2004.847 4921.795, 1996.427 4927.551, 1983.826 4946.347 C 1974.646 4960.040, 1969.742 4969.876, 1967.460 4979.168 C 1963.784 4994.144, 1963.765 5049.578, 1967.430 5066.315 C 1970.166 5078.806, 1974.960 5086.932, 1986.914 5099.339 C 1992.827 5105.478, 2002.658 5116.620, 2008.759 5124.099 C 2021.179 5139.325, 2029.446 5147.290, 2037.237 5151.537 C 2044.041 5155.245, 2051.321 5155.271, 2066.678 5151.642 C 2080.016 5148.489, 2087.590 5148.317, 2096.145 5150.972 C 2104.297 5153.503, 2109.010 5156.681, 2128.259 5172.632 C 2160.223 5199.120, 2176.666 5208.762, 2198.257 5213.680 C 2215.022 5217.499, 2285.699 5214.213, 2310.818 5208.448 C 2326.441 5204.861, 2330.730 5200.994, 2329.550 5191.556 C 2328.283 5181.414, 2333.578 5178.735, 2358.326 5176.996 C 2400.397 5174.040, 2453.583 5164.818, 2477.212 5156.383 C 2486.505 5153.065, 2491.872 5148.914, 2507.173 5133.209 C 2533.361 5106.330, 2552.816 5079.496, 2555.900 5066 C 2557.491 5059.042, 2565.730 5014.694, 2567.512 5003.500 C 2570.151 4986.926, 2570.390 4972.440, 2568.502 4943.546 C 2566.493 4912.790, 2566.861 4885.486, 2569.424 4875.216 C 2571.987 4864.948, 2577.478 4851.164, 2591.144 4820.696 C 2615.003 4767.502, 2614.358 4769.953, 2618.978 4715 C 2627.616 4612.241, 2626.712 4617.960, 2647.124 4537 C 2671.710 4439.479, 2670.187 4444.647, 2698.681 4362.111 C 2737.799 4248.805, 2762.563 4176.409, 2777.565 4131.500 L 2790.927 4091.500 2793.440 4059 C 2799.701 3978.033, 2808.029 3828.948, 2809.527 3771 C 2810.387 3737.745, 2812.794 3715.343, 2820.591 3668 C 2831.971 3598.915, 2854.137 3494.274, 2865.606 3455.500 C 2872.095 3433.560, 2892.717 3383.534, 2907.180 3354.644 C 2922.458 3324.127, 2930.210 3313.875, 2960.637 3283.946 C 2983.642 3261.317, 3005.946 3241.744, 3012 3238.870 C 3033.765 3228.540, 3204.736 3166.401, 3300.939 3133.857 C 3326.247 3125.295, 3335.859 3122.631, 3369.439 3114.867 C 3447.828 3096.744, 3511.321 3080.065, 3544.500 3068.880 C 3579.636 3057.036, 3614.397 3040.828, 3728.500 2983.085 C 3760.400 2966.942, 3796.175 2948.451, 3808 2941.993 C 3857.652 2914.879, 3869.984 2910.618, 3898.500 2910.719 C 3919.663 2910.793, 3945.637 2914.710, 4023 2929.490 C 4068.894 2938.258, 4099.746 2943.455, 4121 2945.997 C 4144.098 2948.760, 4157.353 2950.826, 4201 2958.464 C 4259.127 2968.637, 4277.139 2971.143, 4305.500 2973.006 C 4336.048 2975.013, 4360.379 2979.082, 4389.390 2987.037 C 4406.006 2991.593, 4429.809 2999.382, 4431 3000.653 C 4431.436 3001.119, 4432.314 3039.300, 4432.952 3085.500 C 4433.590 3131.700, 4435.209 3206.175, 4436.549 3251 C 4442.624 3454.197, 4443.997 3512.104, 4444.001 3565.500 C 4444.002 3587.618, 4444.647 3611.912, 4445.671 3628.500 C 4446.659 3644.493, 4447.372 3670.380, 4447.420 3692 C 4447.510 3733.148, 4447.754 3730.944, 4437.856 3778.500 C 4426.777 3831.733, 4425.261 3836.808, 4394.693 3923 C 4360.701 4018.846, 4334.107 4090.850, 4328.826 4101.332 C 4315.228 4128.326, 4255.285 4202.359, 4234.640 4217.658 C 4226.163 4223.939, 4224.057 4223.744, 4201.099 4214.557 C 4175.447 4204.291, 4170.207 4202.916, 4154.300 4202.275 C 4135.892 4201.532, 4130.519 4202.942, 4106.517 4214.815 C 4096.058 4219.989, 4077.600 4228.941, 4065.500 4234.709 C 4008.476 4261.892, 3981.196 4280.467, 3966.896 4301.848 C 3955.896 4318.294, 3945.583 4344.594, 3940.368 4369.500 C 3938.028 4380.673, 3937.637 4384.959, 3937.584 4400 L 3937.522 4417.500 3942.302 4431.385 C 3953.815 4464.826, 3967.959 4486.670, 3980.343 4490.137 C 3983.570 4491.040, 3994.013 4490.924, 4027 4489.618 C 4074.807 4487.726, 4117.099 4487.494, 4133.500 4489.035 C 4139.550 4489.604, 4154.850 4491.654, 4167.500 4493.592 C 4224.120 4502.264, 4295.712 4502.777, 4354.803 4494.934 C 4399.430 4489.010, 4434.897 4480.158, 4458.594 4469.027 C 4485.473 4456.403, 4494.988 4444.647, 4513.920 4400.676 C 4534.280 4353.385, 4545.053 4335.811, 4582.320 4289.089 C 4622.683 4238.485, 4718.721 4104.944, 4815.098 3965.409 L 4834.500 3937.319 4890.500 3832.165 C 4921.300 3774.331, 4946.744 3727.009, 4947.043 3727.006 C 4947.341 3727.003, 4948.148 3729.137, 4948.836 3731.750 C 4951.229 3740.844, 4971.240 3807.760, 4983.150 3846.500 C 5010.453 3935.307, 5030.958 3995.005, 5041.134 4015.310 C 5045.409 4023.842, 5051.879 4032.733, 5061.206 4042.895 C 5073.657 4056.461, 5074.432 4058.156, 5074.853 4072.740 C 5075.274 4087.359, 5074.168 4093.137, 5066.311 4117.361 C 5059.098 4139.599, 5048.875 4166.468, 5026.547 4221.865 C 5016.431 4246.964, 5006.123 4273.436, 5003.640 4280.690 C 4996.776 4300.744, 4973.678 4355.367, 4949.847 4407.901 L 4941.500 4426.302 4913 4434.027 C 4825.497 4457.746, 4805.085 4465.253, 4768.896 4487.027 C 4725.754 4512.985, 4695.284 4537.522, 4685.732 4554 C 4673.304 4575.440, 4662.835 4616.751, 4662.671 4645 C 4662.602 4657.106, 4662.983 4660.255, 4666.363 4675.500 C 4673.966 4709.794, 4677.950 4723.757, 4683.195 4734.500 C 4689.243 4746.885, 4693.976 4749.516, 4718.243 4753.982 C 4741.612 4758.283, 4750.605 4761.719, 4757.500 4768.981 C 4760.380 4772.015, 4760.500 4772.503, 4760.500 4781.205 C 4760.500 4789.937, 4760.601 4790.344, 4763.263 4792.339 C 4765.629 4794.112, 4767.841 4794.470, 4778.648 4794.830 C 4785.590 4795.061, 4798.296 4794.712, 4806.885 4794.054 C 4823.789 4792.759, 4878.463 4786.729, 4913 4782.351 C 4931.374 4780.022, 4938.281 4779.620, 4960.500 4779.585 C 5000.783 4779.523, 5016.445 4781.570, 5051.500 4791.480 C 5073.856 4797.800, 5079.915 4799, 5089.474 4799 C 5109.112 4799, 5129.379 4787.695, 5154.005 4763.005 C 5186.047 4730.879, 5231.876 4669.011, 5279.231 4593.952 C 5293.728 4570.974, 5308.873 4544.489, 5378.987 4419.500 C 5440.742 4309.410, 5457.836 4279.531, 5476.814 4248.500 C 5545.599 4136.031, 5562.393 4102.991, 5584.568 4036.500 C 5594.401 4007.014, 5603.806 3974.712, 5611.387 3944.381 C 5626.090 3885.553, 5627.928 3869.208, 5628.297 3794 L 5628.500 3752.500 5624.771 3743.586 C 5622.720 3738.684, 5614.077 3721.584, 5605.565 3705.586 C 5577.695 3653.210, 5575.386 3646.245, 5570.061 3598.500 C 5561.462 3521.402, 5552.734 3375.783, 5554.298 3335.500 C 5555.060 3315.868, 5569.664 3210.417, 5579.573 3153 C 5587.599 3106.489, 5596.774 3065.756, 5604.443 3042.585 C 5612.122 3019.385, 5647.902 2937.399, 5669.506 2893.500 C 5688.995 2853.899, 5701.184 2833.710, 5718.711 2812 C 5728.331 2800.083, 5732.532 2795.268, 5762.411 2761.913 C 5781.310 2740.814, 5795.240 2724.181, 5810.735 2704.213 C 5839.020 2667.761, 5876.114 2624.915, 5897.808 2603.637 L 5903.786 2597.774 5904.390 2601.637 C 5904.722 2603.762, 5906.353 2616.975, 5908.013 2631 C 5914.153 2682.864, 5925.045 2766.814, 5932.050 2816.272 C 5947.694 2926.710, 5955.282 2962.213, 5987.991 3078 C 6012.483 3164.696, 6015.371 3176.535, 6028.608 3244.500 C 6056.165 3385.993, 6093.349 3606.575, 6108.089 3716 C 6113.503 3756.189, 6112.811 3976.395, 6106.973 4071 C 6105.859 4089.052, 6103.753 4110.418, 6101.954 4121.926 C 6099.019 4140.706, 6049.182 4344.851, 6026.990 4429 C 6009.134 4496.710, 6000.502 4525.691, 5986.484 4565 C 5956.601 4648.793, 5894.239 4836.911, 5865.651 4929.500 C 5845.166 4995.847, 5835.768 5030.459, 5833.991 5046.106 C 5832.776 5056.801, 5831.141 5061.502, 5825.475 5070.593 C 5818.838 5081.240, 5817.047 5085.778, 5817.023 5092 C 5816.971 5105.508, 5830.851 5123.526, 5860.500 5148.440 C 5901.900 5183.228, 5943.336 5208.523, 5977.614 5219.935 C 5997.213 5226.460, 6008.064 5228.345, 6026.500 5228.428 C 6040.994 5228.493, 6043.535 5228.231, 6053.500 5225.647 C 6078.878 5219.063, 6112.211 5205.658, 6150 5186.838 C 6179.426 5172.182, 6193.594 5164.072, 6217 5148.487 C 6267.889 5114.601, 6301.285 5081.093, 6318.851 5046.296 C 6327.286 5029.585, 6348.212 4972.187, 6439.993 4714 C 6511.910 4511.695, 6531.245 4458.283, 6540.808 4435.500 C 6552.066 4408.681, 6600.587 4276.075, 6647.653 4143.500 C 6664.113 4097.134, 6743.825 3819.217, 6765.822 3731.500 C 6775.795 3691.732, 6777.802 3680.601, 6786.919 3614.500 C 6801.927 3505.673, 6832.097 3251.525, 6841.643 3153.500 L 6844.369 3125.500 6842.152 3074 C 6839.273 3007.114, 6829.872 2808.918, 6820.499 2617.500 L 6813.055 2465.500 6798.057 2346 C 6766.523 2094.753, 6750.515 1959.635, 6747.943 1923 C 6745.492 1888.100, 6725.017 1762.884, 6701.422 1638.500 C 6688.043 1567.970, 6683.639 1548.841, 6677.250 1533.500 C 6664.945 1503.952, 6630.522 1435.236, 6565.791 1311 C 6549.027 1278.825, 6517.402 1217.175, 6495.514 1174 C 6408.017 1001.412, 6354.935 899.019, 6346.988 887.500 C 6339.270 876.313, 6202.233 714.468, 6131.075 632.500 C 6080.539 574.287, 6067.111 560.076, 6029.493 524.985 C 5925.299 427.793, 5811.820 329.223, 5779.405 307.754 C 5736.192 279.135, 5620.228 222.843, 5489.245 166.902 C 5426.069 139.921, 5420.542 137.974, 5340.620 114.539 C 5237.207 84.217, 5199.514 73.437, 5188.815 71.122 C 5168.030 66.625, 5120.003 59.188, 5004.500 42.580 C 4890.168 26.140, 4869.631 22.923, 4854 19.002 C 4830.224 13.040, 4743.013 5.128, 4655.500 0.995 C 4636.749 0.109, 4318.811 -0.181, 4307 0.676" stroke="none" fill="black" fill-rule="evenodd"/>
</svg>