<!-- Created with Inkscape (http://www.inkscape.org/) -->

<svg
   version="1.1"
   id="svg1"
   width="800"
   height="800"
   viewBox="0 0 800 800"
   sodipodi:docname="jasmine-flower.svg"
   inkscape:version="1.3.2 (091e20e, 2023-11-25, custom)"
   xmlns:inkscape="http://www.inkscape.org/namespaces/inkscape"
   xmlns:sodipodi="http://sodipodi.sourceforge.net/DTD/sodipodi-0.dtd"
   xmlns="http://www.w3.org/2000/svg"
   xmlns:svg="http://www.w3.org/2000/svg"
   xmlns:rdf="http://www.w3.org/1999/02/22-rdf-syntax-ns#"
   xmlns:cc="http://creativecommons.org/ns#"
   xmlns:dc="http://purl.org/dc/elements/1.1/">
  <title
     id="title55">jasmine-flower</title>
  <defs
     id="defs1">
    <clipPath
       clipPathUnits="userSpaceOnUse"
       id="clipPath3">
      <path
         d="M 0,600 H 600 V 0 H 0 Z"
         transform="translate(-384.21071,-208.39231)"
         id="path3" />
    </clipPath>
    <clipPath
       clipPathUnits="userSpaceOnUse"
       id="clipPath5">
      <path
         d="M 0,600 H 600 V 0 H 0 Z"
         transform="translate(-321.39901,-242.11531)"
         id="path5" />
    </clipPath>
    <clipPath
       clipPathUnits="userSpaceOnUse"
       id="clipPath7">
      <path
         d="M 0,600 H 600 V 0 H 0 Z"
         transform="translate(-309.90511,-283.516)"
         id="path7" />
    </clipPath>
    <clipPath
       clipPathUnits="userSpaceOnUse"
       id="clipPath9">
      <path
         d="M 0,600 H 600 V 0 H 0 Z"
         transform="translate(-309.90511,-283.516)"
         id="path9" />
    </clipPath>
    <clipPath
       clipPathUnits="userSpaceOnUse"
       id="clipPath11">
      <path
         d="M 0,600 H 600 V 0 H 0 Z"
         transform="translate(-291.3448,-314.58481)"
         id="path11" />
    </clipPath>
    <clipPath
       clipPathUnits="userSpaceOnUse"
       id="clipPath13">
      <path
         d="M 0,600 H 600 V 0 H 0 Z"
         transform="translate(-275.90341,-134.10621)"
         id="path13" />
    </clipPath>
    <clipPath
       clipPathUnits="userSpaceOnUse"
       id="clipPath15">
      <path
         d="M 0,600 H 600 V 0 H 0 Z"
         transform="translate(-325.67031,-304.49471)"
         id="path15" />
    </clipPath>
    <clipPath
       clipPathUnits="userSpaceOnUse"
       id="clipPath17">
      <path
         d="M 0,600 H 600 V 0 H 0 Z"
         transform="translate(-435.75141,-160.6435)"
         id="path17" />
    </clipPath>
    <clipPath
       clipPathUnits="userSpaceOnUse"
       id="clipPath19">
      <path
         d="M 0,600 H 600 V 0 H 0 Z"
         transform="translate(-263.98701,-359.39071)"
         id="path19" />
    </clipPath>
    <clipPath
       clipPathUnits="userSpaceOnUse"
       id="clipPath21">
      <path
         d="M 0,600 H 600 V 0 H 0 Z"
         transform="translate(-539.96111,-296.30731)"
         id="path21" />
    </clipPath>
    <clipPath
       clipPathUnits="userSpaceOnUse"
       id="clipPath23">
      <path
         d="M 0,600 H 600 V 0 H 0 Z"
         transform="translate(-290.4481,-332.63981)"
         id="path23" />
    </clipPath>
    <clipPath
       clipPathUnits="userSpaceOnUse"
       id="clipPath25">
      <path
         d="M 0,600 H 600 V 0 H 0 Z"
         transform="translate(-409.30851,-544.70091)"
         id="path25" />
    </clipPath>
    <clipPath
       clipPathUnits="userSpaceOnUse"
       id="clipPath27">
      <path
         d="M 0,600 H 600 V 0 H 0 Z"
         transform="translate(-277.8145,-372.93971)"
         id="path27" />
    </clipPath>
    <clipPath
       clipPathUnits="userSpaceOnUse"
       id="clipPath29">
      <path
         d="M 0,600 H 600 V 0 H 0 Z"
         transform="translate(-99.8419,-477.99561)"
         id="path29" />
    </clipPath>
    <clipPath
       clipPathUnits="userSpaceOnUse"
       id="clipPath31">
      <path
         d="M 0,600 H 600 V 0 H 0 Z"
         transform="translate(-300.09201,-352.40991)"
         id="path31" />
    </clipPath>
    <clipPath
       clipPathUnits="userSpaceOnUse"
       id="clipPath33">
      <path
         d="M 0,600 H 600 V 0 H 0 Z"
         transform="translate(-55.771201,-209.41191)"
         id="path33" />
    </clipPath>
    <clipPath
       clipPathUnits="userSpaceOnUse"
       id="clipPath35">
      <path
         d="M 0,600 H 600 V 0 H 0 Z"
         transform="translate(-300.81571,-332.59841)"
         id="path35" />
    </clipPath>
    <clipPath
       clipPathUnits="userSpaceOnUse"
       id="clipPath37">
      <path
         d="M 0,600 H 600 V 0 H 0 Z"
         transform="translate(-244.29291,-197.62161)"
         id="path37" />
    </clipPath>
    <clipPath
       clipPathUnits="userSpaceOnUse"
       id="clipPath39">
      <path
         d="M 0,600 H 600 V 0 H 0 Z"
         transform="translate(-313.69611,-363.62101)"
         id="path39" />
    </clipPath>
    <clipPath
       clipPathUnits="userSpaceOnUse"
       id="clipPath41">
      <path
         d="M 0,600 H 600 V 0 H 0 Z"
         transform="translate(-432.49871,-278.18431)"
         id="path41" />
    </clipPath>
    <clipPath
       clipPathUnits="userSpaceOnUse"
       id="clipPath43">
      <path
         d="M 0,600 H 600 V 0 H 0 Z"
         transform="translate(-291.06571,-382.98201)"
         id="path43" />
    </clipPath>
    <clipPath
       clipPathUnits="userSpaceOnUse"
       id="clipPath45">
      <path
         d="M 0,600 H 600 V 0 H 0 Z"
         transform="translate(-416.13081,-458.95741)"
         id="path45" />
    </clipPath>
    <clipPath
       clipPathUnits="userSpaceOnUse"
       id="clipPath47">
      <path
         d="M 0,600 H 600 V 0 H 0 Z"
         transform="translate(-267.69031,-338.17041)"
         id="path47" />
    </clipPath>
    <clipPath
       clipPathUnits="userSpaceOnUse"
       id="clipPath49">
      <path
         d="M 0,600 H 600 V 0 H 0 Z"
         transform="translate(-123.45831,-362.88101)"
         id="path49" />
    </clipPath>
    <clipPath
       clipPathUnits="userSpaceOnUse"
       id="clipPath51">
      <path
         d="M 0,600 H 600 V 0 H 0 Z"
         transform="translate(-263.31291,-367.62921)"
         id="path51" />
    </clipPath>
    <clipPath
       clipPathUnits="userSpaceOnUse"
       id="clipPath53">
      <path
         d="M 0,600 H 600 V 0 H 0 Z"
         transform="translate(-229.7038,-510.05011)"
         id="path53" />
    </clipPath>
    <clipPath
       clipPathUnits="userSpaceOnUse"
       id="clipPath55">
      <path
         d="M 0,600 H 600 V 0 H 0 Z"
         transform="translate(-291.25081,-344.01471)"
         id="path55" />
    </clipPath>
  </defs>
  <sodipodi:namedview
     id="namedview1"
     pagecolor="#ffffff"
     bordercolor="#000000"
     borderopacity="0.25"
     inkscape:showpageshadow="2"
     inkscape:pageopacity="0.0"
     inkscape:pagecheckerboard="0"
     inkscape:deskcolor="#d1d1d1"
     inkscape:zoom="0.74"
     inkscape:cx="399.32432"
     inkscape:cy="400"
     inkscape:window-width="1440"
     inkscape:window-height="830"
     inkscape:window-x="-6"
     inkscape:window-y="-6"
     inkscape:window-maximized="1"
     inkscape:current-layer="layer-MC0">
    <inkscape:page
       x="0"
       y="0"
       inkscape:label="1"
       id="page1"
       width="800"
       height="800"
       margin="0.66666669 0.66666669 0 0"
       bleed="0" />
  </sodipodi:namedview>
  <g
     id="layer-MC0"
     inkscape:groupmode="layer"
     inkscape:label="libreclipart.org">
    <path
       id="path1"
       d="M 0,0.5 H 599.5 V 600 H 0 Z"
       style="fill:#a1c8e3;fill-opacity:1;fill-rule:nonzero;stroke:none"
       transform="matrix(1.3333333,0,0,-1.3333333,0,800)" />
    <path
       id="path2"
       d="m 0,0 c -30.864,-12.427 -26.746,-56.624 -42.487,-75.295 16.196,-0.076 31.664,6.238 43.141,17.402 2.106,-5.718 3.575,-11.76 2.699,-19.46 6.277,11.008 14.993,14.739 23.577,20.299 8.232,-18.98 16.96,-37.086 16.837,-53.243 22.167,18.229 35.007,45.401 35.046,74.066 16.765,-5.55 29.38,1.305 45.47,-7.794 -9.764,12.816 -7.161,24.665 -11.482,37.993 15.601,1.991 30.456,3.841 42.318,0.253 -9.083,21.36 -26.707,37.828 -48.448,45.503 20.145,17.036 13.138,34.34 29.468,49.31 -17.887,-6.266 -29.213,3.332 -47.475,0.155 4.272,20.235 -0.604,41.354 -13.372,57.682 -2.734,-12.742 -13.542,-25.465 -23.216,-39.137 -9.016,14.993 -22.926,18.148 -29.069,35.484 -1.02,-15.79 -10.431,-23.05 -15.962,-35.52 -21.484,19.258 -50.492,27.847 -79.011,23.372 16.915,-14.816 25.262,-44.943 39.612,-69.643 -17.455,-5.196 -23.529,-18.547 -42.191,-20.678 7.939,-2.381 13.079,-6.48 17.741,-11.021 C -66.471,23.747 -74.41,15.129 -79.567,4.699 -56.63,10.229 -20.679,-11.476 4.207,6.924 2.666,4.729 1.259,2.415 0,0"
       style="fill:#3e5e75;fill-opacity:1;fill-rule:evenodd;stroke:none"
       transform="matrix(1.3333333,0,0,-1.3333333,512.28093,522.1436)"
       clip-path="url(#clipPath3)" />
    <path
       id="path4"
       d="m 0,0 c 42.497,-25.064 90.746,19.706 126.921,18.065 -14.543,19.112 -35.943,31.596 -59.437,35.006 4.82,7.643 10.598,14.827 20.443,20.754 -18.614,-2.563 -30.876,4.315 -45.169,9.385 14.881,26.827 28.286,53.446 47.395,67.899 -41.46,9.597 -85.011,0.147 -118.752,-25.705 -8.619,24.728 -28.077,33.368 -31.914,60.508 -6.249,-23.059 -22.532,-30.702 -34.302,-47.825 -16.434,16.547 -32.03,32.342 -38.528,49.531 -16.911,-29.977 -20.352,-65.578 -9.736,-98.076 -38.232,8.298 -52.249,-15.575 -84.604,-9.897 23.528,-15.373 22.475,-37.362 42.708,-55.964 -27.653,-13.258 -48.081,-38.07 -55.745,-67.835 17.452,8.296 42.179,7.082 66.994,8.059 -9.485,-24.147 -0.628,-43.354 -15.463,-66.239 19.488,13.066 36.527,8.559 56.186,13.321 -3.235,-42.66 12.873,-84.53 43.899,-114.02 2.141,33.275 30.025,70.306 46.104,109.495 21.879,-15.831 43.065,-10.91 62.431,-30.931 -4.373,11.488 -4.196,21.234 -3.069,30.819 15.766,-5.964 33.073,-7.513 49.996,-4.156 C 39.134,-75.829 32.177,-13.947 -11.943,-1.308 -7.969,-1.138 -3.976,-0.701 0,0"
       style="fill:#3e5e75;fill-opacity:1;fill-rule:evenodd;stroke:none"
       transform="matrix(1.3333333,0,0,-1.3333333,428.532,477.1796)"
       clip-path="url(#clipPath5)" />
    <path
       id="path6"
       d="m 0,0 33.4,-92.858 -7.1,-7.967 74.787,-65.854 22.421,-115.914 20.306,-0.423 -17.768,133.606 H 108.702 L 49.476,-87.993 11.825,24.537 Z"
       style="fill:#663333;fill-opacity:1;fill-rule:evenodd;stroke:none"
       transform="matrix(1.3333333,0,0,-1.3333333,413.2068,421.97867)"
       clip-path="url(#clipPath7)" />
    <path
       id="path8"
       d="m 0,0 33.4,-92.858 -7.1,-7.967 33.087,-29.135 c 6.406,4.864 13.974,7.946 21.915,8.963 L 49.476,-87.993 11.825,24.537 Z"
       style="fill:#361717;fill-opacity:1;fill-rule:evenodd;stroke:none"
       transform="matrix(1.3333333,0,0,-1.3333333,413.2068,421.97867)"
       clip-path="url(#clipPath9)" />
    <path
       id="path10"
       d="m 0,0 c -31.523,-23.001 -51.053,-50.318 -53.04,-90.656 -1.678,-34.083 12.142,-67.098 37.599,-89.823 C -13.733,-128.69 66.012,-63.011 0,0"
       style="fill:#2d6110;fill-opacity:1;fill-rule:evenodd;stroke:none"
       transform="matrix(1.3333333,0,0,-1.3333333,388.45973,380.5536)"
       clip-path="url(#clipPath11)" />
    <path
       id="path12"
       d="M 0,0 C 1.709,51.789 81.453,117.467 15.441,180.479 L 8.482,166.804 C -17.918,114.933 -21.002,54.281 0,0"
       style="fill:#417921;fill-opacity:1;fill-rule:evenodd;stroke:none"
       transform="matrix(1.3333333,0,0,-1.3333333,367.8712,621.19173)"
       clip-path="url(#clipPath13)" />
    <path
       id="path14"
       d="m 0,0 c 38.947,-2.439 70.103,-14.964 93.471,-47.904 19.746,-27.832 25.85,-63.098 16.61,-95.947 C 80.788,-101.108 -21.764,-88.624 0,0"
       style="fill:#2d6110;fill-opacity:1;fill-rule:evenodd;stroke:none"
       transform="matrix(1.3333333,0,0,-1.3333333,434.22707,394.00707)"
       clip-path="url(#clipPath15)" />
    <path
       id="path16"
       d="m 0,0 c -29.293,42.743 -131.845,55.227 -110.081,143.851 l 13.222,-7.785 C -46.706,106.534 -11.487,57.058 0,0"
       style="fill:#417921;fill-opacity:1;fill-rule:evenodd;stroke:none"
       transform="matrix(1.3333333,0,0,-1.3333333,581.00187,585.80867)"
       clip-path="url(#clipPath17)" />
    <path
       id="path18"
       d="M 0,0 C 49.266,35.948 99.235,51.989 160.219,35.709 211.746,21.953 254.292,-14.358 275.974,-63.083 198.08,-40.93 62.302,-128.295 0,0"
       style="fill:#2d6110;fill-opacity:1;fill-rule:evenodd;stroke:none"
       transform="matrix(1.3333333,0,0,-1.3333333,351.98267,320.8124)"
       clip-path="url(#clipPath19)" />
    <path
       id="path20"
       d="m 0,0 c -77.894,22.154 -213.672,-65.212 -275.974,63.083 l 23.671,3.838 C -162.514,81.477 -70.772,57.143 0,0"
       style="fill:#417921;fill-opacity:1;fill-rule:evenodd;stroke:none"
       transform="matrix(1.3333333,0,0,-1.3333333,719.94813,404.9236)"
       clip-path="url(#clipPath21)" />
    <path
       id="path22"
       d="M 0,0 C -17.673,49.299 -18.776,94.353 9.417,140.646 33.238,179.76 73.465,206.009 118.86,212.061 81.73,153.261 120.792,20.229 0,0"
       style="fill:#2d6110;fill-opacity:1;fill-rule:evenodd;stroke:none"
       transform="matrix(1.3333333,0,0,-1.3333333,387.26413,356.48027)"
       clip-path="url(#clipPath23)" />
    <path
       id="path24"
       d="m 0,0 c -37.13,-58.801 1.932,-191.832 -118.86,-212.061 l 2.576,20.43 C -106.512,-114.133 -64.229,-44.453 0,0"
       style="fill:#417921;fill-opacity:1;fill-rule:evenodd;stroke:none"
       transform="matrix(1.3333333,0,0,-1.3333333,545.74467,73.732133)"
       clip-path="url(#clipPath25)" />
    <path
       id="path26"
       d="m 0,0 c -8.079,43.783 -26.521,77.365 -67.022,99.339 -34.222,18.567 -75.002,20.668 -110.951,5.717 C -125.557,77.709 -97.417,-36.751 0,0"
       style="fill:#2d6110;fill-opacity:1;fill-rule:evenodd;stroke:none"
       transform="matrix(1.3333333,0,0,-1.3333333,370.41933,302.74707)"
       clip-path="url(#clipPath27)" />
    <path
       id="path28"
       d="m 0,0 c 52.415,-27.347 80.555,-141.807 177.973,-105.056 l -10.624,13.914 C 127.05,-38.363 66.199,-5.222 0,0"
       style="fill:#417921;fill-opacity:1;fill-rule:evenodd;stroke:none"
       transform="matrix(1.3333333,0,0,-1.3333333,133.12253,162.67253)"
       clip-path="url(#clipPath29)" />
    <path
       id="path30"
       d="m 0,0 c -57.784,19.506 -110.263,19.811 -163.55,-14.02 -45.023,-28.586 -74.711,-75.993 -80.771,-128.978 C -176.666,-98.489 -20.928,-141.079 0,0"
       style="fill:#2d6110;fill-opacity:1;fill-rule:evenodd;stroke:none"
       transform="matrix(1.3333333,0,0,-1.3333333,400.12267,330.12013)"
       clip-path="url(#clipPath31)" />
    <path
       id="path32"
       d="m 0,0 c 67.655,44.509 223.393,1.919 244.321,142.998 l -23.732,-3.443 C 130.571,126.493 50.361,75.748 0,0"
       style="fill:#417921;fill-opacity:1;fill-rule:evenodd;stroke:none"
       transform="matrix(1.3333333,0,0,-1.3333333,74.3616,520.78413)"
       clip-path="url(#clipPath33)" />
    <path
       id="path34"
       d="m 0,0 c 11.796,-25.066 12.469,-55.68 1.838,-83.611 -24.087,-63.282 -63.72,-49.455 -88.152,-88.344 7.13,45.371 -31.834,60.984 -8.418,124.517 10.335,28.042 30.954,50.68 56.316,61.828 9.464,4.16 15.785,6.346 25.356,9.218 C -7.732,15.155 -4.402,9.354 0,0"
       style="fill:#d1e4f0;fill-opacity:1;fill-rule:evenodd;stroke:none"
       transform="matrix(1.3333333,0,0,-1.3333333,401.0876,356.53547)"
       clip-path="url(#clipPath35)" />
    <path
       id="path36"
       d="m 0,0 c 11.224,-4.204 40.036,18.111 53.452,53.927 13.415,35.815 6.354,71.567 -4.87,75.771 C 37.359,133.902 26.223,104.966 12.807,69.151 -0.608,33.336 -11.224,4.204 0,0 m -27.957,10.473 c -11.224,4.203 -18.285,39.956 -4.869,75.771 13.415,35.815 42.228,58.131 53.451,53.927 C 31.848,135.966 21.233,106.835 7.818,71.02 -5.598,35.205 -16.733,6.268 -27.957,10.473"
       style="fill:#ffffff;fill-opacity:1;fill-rule:evenodd;stroke:none"
       transform="matrix(1.3333333,0,0,-1.3333333,325.72387,536.50453)"
       clip-path="url(#clipPath37)" />
    <path
       id="path38"
       d="m 0,0 c 27.077,5.855 57.058,-0.375 81.881,-17.017 56.242,-37.705 33.854,-73.212 66.25,-105.766 -42.603,17.153 -66.582,-17.3 -123.22,19.808 -24.998,16.378 -42.417,41.561 -47.573,68.78 -1.925,10.158 -2.633,16.809 -3.278,26.78 9.434,3.291 15.836,5.23 25.94,7.415"
       style="fill:#eff7fc;fill-opacity:1;fill-rule:evenodd;stroke:none"
       transform="matrix(1.3333333,0,0,-1.3333333,418.26147,315.172)"
       clip-path="url(#clipPath39)" />
    <path
       id="path40"
       d="M 0,0 C 6.621,9.99 -8.641,43.083 -40.521,64.212 -72.4,85.34 -108.824,86.503 -115.446,76.513 -122.067,66.522 -96.377,49.163 -64.497,28.034 -32.618,6.906 -6.621,-9.99 0,0 m -16.493,-24.885 c -6.621,-9.99 -43.046,-8.828 -74.925,12.3 -31.879,21.129 -47.141,54.222 -40.52,64.213 6.621,9.99 32.617,-6.907 64.497,-28.035 31.879,-21.128 57.569,-38.488 50.948,-48.478"
       style="fill:#ffffff;fill-opacity:1;fill-rule:evenodd;stroke:none"
       transform="matrix(1.3333333,0,0,-1.3333333,576.66493,429.0876)"
       clip-path="url(#clipPath41)" />
    <path
       id="path42"
       d="m 0,0 c 5.19,27.213 22.64,52.375 47.658,68.723 56.683,37.038 80.619,2.556 123.244,19.657 C 138.466,55.866 160.811,20.332 104.523,-17.304 79.68,-33.916 49.692,-40.111 22.621,-34.222 12.52,-32.025 6.12,-30.077 -3.31,-26.776 -2.652,-16.805 -1.937,-10.154 0,0"
       style="fill:#deedf7;fill-opacity:1;fill-rule:evenodd;stroke:none"
       transform="matrix(1.3333333,0,0,-1.3333333,388.0876,289.35733)"
       clip-path="url(#clipPath43)" />
    <path
       id="path44"
       d="m 0,0 c -6.609,9.998 -43.035,8.88 -74.94,-12.209 -31.905,-21.09 -47.207,-54.165 -40.598,-64.163 6.609,-9.998 32.626,6.866 64.531,27.956 C -19.102,-27.327 6.609,-9.999 0,0 m 16.462,-24.905 c 6.61,-9.998 -8.693,-43.073 -40.598,-64.163 -31.905,-21.089 -68.331,-22.208 -74.94,-12.209 -6.609,9.998 19.102,27.326 51.007,48.416 31.905,21.09 57.922,37.954 64.531,27.956"
       style="fill:#ffffff;fill-opacity:1;fill-rule:evenodd;stroke:none"
       transform="matrix(1.3333333,0,0,-1.3333333,554.84107,188.0568)"
       clip-path="url(#clipPath45)" />
    <path
       id="path46"
       d="m 0,0 c -21.77,-17.133 -51.448,-24.675 -81.054,-20.6 -67.078,9.235 -62.521,50.962 -105.91,66.02 45.812,3.259 52.26,44.737 119.432,36.213 C -37.883,77.871 -11.188,62.872 5.379,40.668 11.562,32.383 15.114,26.715 20.065,18.036 13.028,10.943 8.124,6.394 0,0"
       style="fill:#deedf7;fill-opacity:1;fill-rule:evenodd;stroke:none"
       transform="matrix(1.3333333,0,0,-1.3333333,356.9204,349.10613)"
       clip-path="url(#clipPath47)" />
    <path
       id="path48"
       d="m 0,0 c -1.572,-11.882 26.653,-34.936 64.568,-39.951 37.915,-5.015 71.163,9.908 72.735,21.789 C 138.874,-6.28 108.174,-1.939 70.26,3.077 32.345,8.092 1.572,11.882 0,0 m 3.915,29.596 c 1.572,11.882 34.819,26.805 72.734,21.79 37.915,-5.015 66.14,-28.069 64.568,-39.951 C 139.646,-0.447 108.873,3.343 70.958,8.359 33.043,13.374 2.343,17.715 3.915,29.596"
       style="fill:#ffffff;fill-opacity:1;fill-rule:evenodd;stroke:none"
       transform="matrix(1.3333333,0,0,-1.3333333,164.61107,316.15867)"
       clip-path="url(#clipPath49)" />
    <path
       id="path50"
       d="m 0,0 c -24.277,13.345 -42.816,37.716 -50.632,66.562 -17.709,65.354 22.482,77.463 19.389,123.286 20.9,-40.896 61.6,-30.626 80,-95.788 C 56.879,65.299 53.503,34.864 39.538,10.938 34.326,2.01 30.497,-3.474 24.443,-11.423 15.164,-7.716 9.06,-4.98 0,0"
       style="fill:#eff7fc;fill-opacity:1;fill-rule:evenodd;stroke:none"
       transform="matrix(1.3333333,0,0,-1.3333333,351.08387,309.82773)"
       clip-path="url(#clipPath51)" />
    <path
       id="path52"
       d="m 0,0 c -11.551,-3.195 -21.744,-38.184 -11.546,-75.045 10.198,-36.861 36.926,-61.634 48.476,-58.439 11.552,3.196 3.552,33.152 -6.646,70.012 C 20.086,-26.611 11.551,3.196 0,0 m 28.773,7.961 c 11.551,3.196 38.279,-21.578 48.476,-58.439 10.199,-36.861 0.006,-71.849 -11.545,-75.045 C 54.153,-128.719 45.617,-98.912 35.42,-62.051 25.221,-25.19 17.222,4.765 28.773,7.961"
       style="fill:#ffffff;fill-opacity:1;fill-rule:evenodd;stroke:none"
       transform="matrix(1.3333333,0,0,-1.3333333,306.27173,119.9332)"
       clip-path="url(#clipPath53)" />
    <path
       id="path54"
       d="m 0,0 c -9.381,-2.69 -18.551,0.589 -20.481,7.322 -1.931,6.733 4.109,14.372 13.49,17.061 C 2.39,27.073 11.56,23.795 13.49,17.061 15.421,10.328 9.381,2.689 0,0"
       style="fill:#d1e4f0;fill-opacity:1;fill-rule:evenodd;stroke:none"
       transform="matrix(1.3333333,0,0,-1.3333333,388.3344,341.31373)"
       clip-path="url(#clipPath55)" />
  </g>
  <metadata
     id="metadata55">
    <?xpacket begin="﻿" id="W5M0MpCehiHzreSzNTczkc9d"?>
<x:xmpmeta xmlns:x="adobe:ns:meta/" x:xmptk="Adobe XMP Core 9.1-c002 116.09864a8, 2024/08/02-05:47:26        ">
   <rdf:RDF xmlns:rdf="http://www.w3.org/1999/02/22-rdf-syntax-ns#">
      <rdf:Description rdf:about=""
            xmlns:dc="http://purl.org/dc/elements/1.1/"
            xmlns:xmpRights="http://ns.adobe.com/xap/1.0/rights/"
            xmlns:Iptc4xmpCore="http://iptc.org/std/Iptc4xmpCore/1.0/xmlns/"
            xmlns:xmp="http://ns.adobe.com/xap/1.0/"
            xmlns:xmpMM="http://ns.adobe.com/xap/1.0/mm/"
            xmlns:stEvt="http://ns.adobe.com/xap/1.0/sType/ResourceEvent#">
         <dc:title>
            <rdf:Alt>
               <rdf:li xml:lang="x-default">jasmine-flower</rdf:li>
            </rdf:Alt>
         </dc:title>
         <dc:creator>
            <rdf:Seq>
               <rdf:li>libreclipart.org</rdf:li>
            </rdf:Seq>
         </dc:creator>
         <dc:rights>
            <rdf:Alt>
               <rdf:li xml:lang="x-default">This image is in public domain by libreclipart.org</rdf:li>
            </rdf:Alt>
         </dc:rights>
         <xmpRights:Marked>False</xmpRights:Marked>
         <xmpRights:UsageTerms>
            <rdf:Alt>
               <rdf:li xml:lang="x-default">Creative Commons Zero</rdf:li>
            </rdf:Alt>
         </xmpRights:UsageTerms>
         <Iptc4xmpCore:CreatorContactInfo>
            <rdf:Description>
               <Iptc4xmpCore:CiUrlWork>https://www.libreclipart.org</Iptc4xmpCore:CiUrlWork>
            </rdf:Description>
         </Iptc4xmpCore:CreatorContactInfo>
         <xmp:MetadataDate>2025-04-08T20:48:08+02:00</xmp:MetadataDate>
         <xmpMM:InstanceID>xmp.iid:ef070009-a971-134e-9f47-fc225d093a66</xmpMM:InstanceID>
         <xmpMM:DocumentID>xmp.did:ef070009-a971-134e-9f47-fc225d093a66</xmpMM:DocumentID>
         <xmpMM:OriginalDocumentID>xmp.did:ef070009-a971-134e-9f47-fc225d093a66</xmpMM:OriginalDocumentID>
         <xmpMM:History>
            <rdf:Seq>
               <rdf:li>
                  <rdf:Description>
                     <stEvt:action>saved</stEvt:action>
                     <stEvt:instanceID>xmp.iid:ef070009-a971-134e-9f47-fc225d093a66</stEvt:instanceID>
                     <stEvt:when>2025-04-08T20:48:08+02:00</stEvt:when>
                     <stEvt:softwareAgent>Adobe Bridge 2024</stEvt:softwareAgent>
                     <stEvt:changed>/metadata</stEvt:changed>
                  </rdf:Description>
               </rdf:li>
            </rdf:Seq>
         </xmpMM:History>
      </rdf:Description>
   </rdf:RDF>
</x:xmpmeta>
                                                                                                    
                                                                                                    
                                                                                                    
                                                                                                    
                                                                                                    
                                                                                                    
                                                                                                    
                                                                                                    
                                                                                                    
                                                                                                    
                                                                                                    
                                                                                                    
                                                                                                    
                                                                                                    
                                                                                                    
                                                                                                    
                                                                                                    
                                                                                                    
                                                                                                    
                                                                                                    
                           
<?xpacket end="w"?>
  </metadata>
</svg>
